<?xml version="1.0" standalone="no"?>
<!DOCTYPE svg PUBLIC "-//W3C//DTD SVG 20010904//EN"
 "http://www.w3.org/TR/2001/REC-SVG-20010904/DTD/svg10.dtd">
<svg version="1.0" xmlns="http://www.w3.org/2000/svg"
 width="300.000000pt" height="272.000000pt" viewBox="0 0 300.000000 272.000000"
 preserveAspectRatio="xMidYMid meet">
<metadata>
Created by potrace 1.10, written by Peter Selinger 2001-2011
</metadata>
<g transform="translate(0.000000,272.000000) scale(0.100000,-0.100000)"
fill="#000000" stroke="none">
<path d="M1160 2533 c0 -40 2 -43 28 -43 21 0 24 2 12 10 -13 8 -13 10 1 10 9
0 19 -7 23 -15 10 -27 26 -15 26 20 0 19 5 35 10 35 6 0 10 -16 10 -35 0 -33
2 -35 33 -34 30 2 30 2 5 6 -32 5 -38 23 -8 23 11 0 20 5 20 10 0 6 -9 10 -20
10 -11 0 -20 5 -20 10 0 6 12 10 27 10 60 0 4 18 -69 22 l-78 5 0 -44z"/>
<path d="M1820 2569 c-25 -4 -53 -5 -62 -2 -10 2 -18 0 -18 -6 0 -6 5 -11 10
-11 6 0 10 -16 10 -35 0 -19 5 -35 10 -35 6 0 10 16 10 36 0 22 4 33 11 29 5
-4 9 -19 7 -33 -3 -26 -1 -27 40 -26 23 0 48 6 54 12 16 16 2 27 -16 13 -18
-15 -36 -6 -36 19 0 20 26 35 35 20 8 -13 25 -13 25 0 0 18 -35 26 -80 19z"/>
<path d="M1420 2545 c-20 -25 -1 -70 29 -70 14 0 26 5 28 11 2 6 -7 10 -19 10
-17 -1 -24 5 -26 23 -3 21 -1 23 23 19 16 -4 24 -1 22 6 -6 18 -43 18 -57 1z"/>
<path d="M1500 2515 c0 -25 5 -45 10 -45 6 0 10 10 10 23 l1 22 20 -24 c11
-13 22 -21 26 -17 4 3 1 12 -5 18 -8 8 -9 15 -1 25 18 21 2 43 -31 43 -29 0
-30 -2 -30 -45z"/>
<path d="M1592 2518 c3 -39 6 -43 31 -46 15 -2 27 1 27 7 0 6 -9 11 -20 11
-27 0 -25 18 3 23 22 4 22 4 -3 15 -24 10 -24 11 -2 11 34 1 26 21 -9 21 -29
0 -30 -1 -27 -42z"/>
<path d="M1682 2527 c-15 -42 -16 -70 -1 -44 13 22 35 22 43 1 13 -34 17 -5 5
35 -15 50 -31 52 -47 8z"/>
<path d="M936 2463 c-11 -11 -7 -60 7 -70 6 -6 36 -13 65 -16 49 -6 52 -5 52
16 l1 22 18 -22 c11 -13 21 -23 23 -23 6 0 4 77 -2 83 -9 7 -157 17 -164 10z
m37 -35 c7 -25 3 -33 -12 -23 -13 8 -15 45 -2 45 5 0 11 -10 14 -22z"/>
<path d="M2018 2463 c-48 -5 -67 -27 -39 -45 27 -16 27 -31 1 -23 -21 7 -28
-10 -7 -17 6 -3 40 -3 73 0 55 4 62 6 61 26 -1 11 2 31 7 44 8 24 1 25 -96 15z"/>
<path d="M1160 2414 c0 -45 0 -45 33 -42 27 3 32 7 35 33 4 31 -18 55 -50 55
-15 0 -18 -8 -18 -46z m54 10 c6 -17 -9 -44 -25 -44 -5 0 -9 14 -9 30 0 33 23
42 34 14z"/>
<path d="M1260 2416 c0 -25 5 -46 10 -46 6 0 10 18 10 39 0 22 -4 43 -10 46
-6 4 -10 -12 -10 -39z"/>
<path d="M1850 2415 c0 -40 2 -45 23 -45 44 0 62 43 31 74 -8 9 -24 16 -35 16
-16 0 -19 -7 -19 -45z m48 -2 c4 -24 -26 -40 -34 -18 -8 21 3 47 19 43 6 -3
13 -14 15 -25z"/>
<path d="M1315 2440 c-8 -13 13 -40 31 -40 8 0 14 -5 14 -11 0 -7 -10 -9 -25
-5 -27 7 -35 -8 -9 -18 18 -7 54 10 54 25 0 5 -11 15 -25 21 -30 13 -34 32 -5
23 11 -4 20 -2 20 4 0 14 -47 14 -55 1z"/>
<path d="M1394 2436 c-9 -24 0 -58 18 -70 14 -8 22 -7 35 7 17 18 17 18 -9 12
-21 -5 -29 -3 -34 9 -9 24 15 49 33 35 15 -13 28 -6 18 10 -9 16 -55 13 -61
-3z"/>
<path d="M1470 2430 c-9 -17 -8 -26 5 -46 27 -42 69 -21 63 33 -4 37 -50 46
-68 13z m54 -9 c9 -14 -4 -41 -19 -41 -18 0 -28 17 -21 35 6 17 32 20 40 6z"/>
<path d="M1550 2441 c0 -21 31 -81 40 -76 12 7 34 75 26 82 -3 3 -11 -7 -17
-23 l-12 -29 -10 28 c-10 25 -27 37 -27 18z"/>
<path d="M1640 2405 c0 -41 2 -45 25 -45 14 0 25 5 25 10 0 6 -9 10 -20 10
-11 0 -20 5 -20 10 0 6 9 10 20 10 11 0 20 5 20 10 0 6 -9 10 -21 10 -12 0
-17 4 -14 11 4 6 13 8 21 5 8 -3 14 -1 14 4 0 6 -11 10 -25 10 -23 0 -25 -4
-25 -45z"/>
<path d="M1710 2410 c0 -22 5 -40 10 -40 6 0 10 8 10 18 0 14 4 13 19 -7 11
-14 21 -20 25 -13 3 6 2 14 -4 17 -8 5 -7 11 1 21 18 22 3 44 -31 44 -28 0
-30 -2 -30 -40z"/>
<path d="M760 2325 c0 -43 1 -45 28 -45 15 0 33 5 40 12 9 9 12 9 12 0 0 -7 5
-12 11 -12 5 0 8 4 4 9 -3 5 -1 12 4 16 6 3 15 -4 21 -15 8 -14 21 -20 45 -20
19 0 35 5 35 10 0 16 32 11 45 -7 11 -14 18 -16 42 -8 49 18 40 85 -13 85 -15
0 -24 -7 -27 -22 l-4 -23 -8 23 c-10 31 -22 27 -39 -13 -8 -19 -22 -35 -30
-35 -22 0 -20 27 2 33 16 4 16 5 0 6 -25 1 -22 21 3 21 12 0 18 4 13 11 -4 7
-27 10 -61 7 -29 -3 -56 -1 -59 4 -3 4 -18 8 -35 8 -28 0 -29 -2 -29 -45z m50
13 c0 6 5 12 10 12 6 0 10 -9 10 -21 0 -11 -4 -17 -10 -14 -5 3 -10 1 -10 -4
0 -6 -4 -11 -10 -11 -5 0 -10 12 -10 28 0 21 2 24 10 12 6 -10 10 -11 10 -2z
m248 -32 c-4 -31 -38 -34 -38 -3 0 29 7 37 27 30 8 -3 13 -15 11 -27z"/>
<path d="M2216 2362 c-3 -5 -19 -7 -35 -4 -28 4 -32 0 -47 -37 -9 -23 -22 -41
-30 -41 -19 0 -18 10 4 26 16 13 16 13 0 14 -26 0 -22 18 5 22 12 3 -6 5 -40
5 l-63 1 0 -45 c0 -27 4 -42 10 -38 6 3 10 14 10 23 1 15 2 15 15 -2 17 -23
66 -26 89 -7 12 10 20 11 29 2 8 -6 33 -8 65 -4 51 6 65 15 40 27 -10 5 -10 7
0 12 6 3 12 17 12 30 0 20 -5 24 -29 24 -17 0 -32 -4 -35 -8z m-153 -42 c19
-23 22 -40 7 -40 -5 0 -10 7 -10 15 0 8 -7 15 -15 15 -8 0 -15 7 -15 15 0 21
12 19 33 -5z m152 -5 c0 -28 -29 -25 -33 3 -3 19 0 23 15 20 10 -2 18 -12 18
-23z"/>
<path d="M1167 2343 c-11 -10 -8 -83 3 -83 6 0 10 7 10 15 0 8 4 15 9 15 5 0
11 -7 15 -15 3 -8 11 -15 17 -15 8 0 8 4 -1 15 -10 12 -10 18 0 30 10 12 10
18 0 30 -13 16 -42 20 -53 8z"/>
<path d="M1257 2343 c-4 -3 -7 -24 -7 -45 0 -37 1 -38 33 -37 23 1 26 3 10 6
-13 2 -23 11 -23 20 0 9 6 13 15 9 8 -3 15 -1 15 4 0 6 -7 10 -15 10 -8 0 -15
5 -15 10 0 6 9 10 20 10 11 0 20 5 20 10 0 11 -43 14 -53 3z"/>
<path d="M1797 2308 c-9 -23 -14 -44 -11 -47 4 -3 9 0 11 7 6 15 43 16 43 0 0
-6 3 -9 6 -5 7 7 -14 75 -25 82 -5 2 -16 -14 -24 -37z"/>
<path d="M1865 2339 c-4 -6 -4 -26 -1 -45 6 -28 11 -34 32 -34 36 0 54 43 29
70 -20 22 -50 26 -60 9z m50 -34 c0 -11 -8 -21 -17 -23 -14 -3 -18 3 -18 23 0
20 4 26 18 23 9 -2 17 -12 17 -23z"/>
<path d="M1344 2304 c-15 -36 -11 -61 6 -34 8 12 13 13 30 3 29 -19 30 -17 13
27 -9 22 -20 40 -25 40 -5 0 -16 -16 -24 -36z"/>
<path d="M1420 2300 c0 -48 18 -60 55 -36 44 29 27 76 -27 76 -26 0 -28 -3
-28 -40z m54 7 c8 -13 7 -20 -4 -27 -24 -16 -30 -12 -30 21 0 33 16 36 34 6z"/>
<path d="M1610 2300 c0 -22 5 -40 10 -40 6 0 10 8 10 18 0 14 4 13 19 -7 l18
-23 0 46 c1 44 0 46 -28 46 -27 0 -29 -2 -29 -40z"/>
<path d="M1700 2300 c0 -43 16 -58 48 -44 15 7 14 8 -5 11 -26 5 -32 23 -8 23
8 0 15 5 15 10 0 6 -7 10 -15 10 -23 0 -18 18 8 23 16 3 13 5 -10 6 -32 1 -33
0 -33 -39z"/>
<path d="M650 2232 c0 -45 16 -57 64 -48 14 3 28 0 31 -5 13 -20 25 -7 25 26
0 24 5 35 15 35 10 0 15 -11 15 -35 0 -47 20 -45 21 3 l2 37 6 -40 c5 -34 10
-40 34 -43 15 -2 27 1 27 7 0 6 -9 11 -20 11 -27 0 -25 18 3 23 l22 4 -22 8
c-13 4 -23 11 -23 16 0 5 10 10 23 11 12 1 -12 4 -53 8 -41 4 -96 10 -122 15
l-48 8 0 -41z"/>
<path d="M2238 2253 c-27 -2 -48 -8 -48 -14 0 -5 6 -9 13 -9 9 0 12 -9 9 -29
-2 -16 1 -32 7 -35 7 -5 12 8 13 36 l1 43 4 -37 c4 -36 6 -38 36 -37 24 1 26
3 10 6 -28 5 -29 12 -5 29 16 13 16 13 0 14 -21 0 -24 20 -4 20 8 0 20 -16 26
-34 12 -36 35 -40 43 -8 4 15 5 15 6 0 0 -10 8 -18 16 -18 8 0 15 8 15 18 0 9
3 27 6 40 6 19 3 22 -25 22 -24 0 -31 -4 -31 -19 0 -30 -17 -34 -24 -6 -4 14
-10 24 -14 23 -4 -1 -28 -3 -54 -5z"/>
<path d="M940 2244 c0 -18 24 -84 30 -84 5 0 11 12 15 28 l7 27 13 -30 13 -30
10 25 11 25 2 -25 c1 -17 3 -20 6 -7 6 21 19 22 27 2 10 -27 21 -16 21 23 0
34 -2 37 -32 40 -28 3 -33 0 -40 -25 l-7 -28 -6 24 c-8 33 -27 38 -32 9 -4
-23 -5 -22 -16 5 -11 25 -22 36 -22 21z"/>
<path d="M1985 2215 c4 -22 9 -43 11 -47 10 -15 24 -8 24 12 0 11 5 20 10 20
6 0 10 -9 10 -19 0 -14 6 -19 20 -18 11 1 20 7 20 14 0 18 19 16 26 -2 11 -27
20 -16 21 26 2 40 1 40 -30 37 -24 -2 -33 -8 -35 -26 -4 -26 -22 -20 -22 9 0
26 -16 24 -25 -3 -7 -22 -7 -22 -12 -3 -10 41 -26 41 -18 0z"/>
<path d="M1140 2201 c0 -22 5 -43 10 -46 6 -4 10 12 10 39 0 25 -4 46 -10 46
-5 0 -10 -18 -10 -39z"/>
<path d="M1200 2230 c0 -5 7 -10 16 -10 11 0 14 -8 12 -30 -2 -16 2 -28 7 -27
6 1 10 14 10 30 0 15 5 27 12 27 7 0 13 5 13 10 0 6 -16 10 -35 10 -19 0 -35
-4 -35 -10z"/>
<path d="M1298 2233 c-2 -5 -3 -24 -3 -43 0 -32 2 -35 34 -38 21 -2 31 0 26 7
-3 6 -15 11 -26 11 -27 0 -24 20 4 21 21 0 21 1 -3 11 -25 11 -25 11 -2 15 12
3 22 9 22 14 0 11 -47 12 -52 2z"/>
<path d="M1465 2204 c4 -21 9 -42 11 -46 10 -15 24 -8 24 12 0 11 5 20 10 20
6 0 10 -9 10 -20 0 -33 18 -22 29 18 13 46 14 55 1 47 -5 -3 -10 -15 -10 -26
0 -11 -4 -17 -10 -14 -5 3 -10 15 -10 26 0 10 -4 19 -10 19 -5 0 -10 -9 -10
-19 0 -11 -4 -23 -10 -26 -5 -3 -10 3 -10 14 0 11 -5 23 -11 27 -9 5 -10 -4
-4 -32z"/>
<path d="M1570 2196 c0 -25 5 -46 10 -46 6 0 10 8 10 18 1 16 1 16 14 0 20
-26 23 -22 22 25 -1 38 -3 42 -28 45 -27 3 -28 2 -28 -42z"/>
<path d="M1687 2233 c-11 -10 -8 -71 3 -78 6 -4 10 12 10 39 0 47 -2 51 -13
39z"/>
<path d="M1750 2230 c0 -5 5 -10 10 -10 6 0 10 -13 10 -29 0 -17 5 -33 10 -36
6 -4 10 8 10 29 0 25 4 36 15 36 8 0 15 5 15 10 0 6 -16 10 -35 10 -19 0 -35
-4 -35 -10z"/>
<path d="M1840 2195 c0 -43 1 -45 30 -45 17 0 30 5 30 10 0 6 -9 10 -20 10
-11 0 -20 5 -20 10 0 6 9 10 21 10 11 0 18 4 14 10 -3 5 -12 7 -20 3 -8 -3
-15 0 -15 6 0 6 9 11 20 11 11 0 20 5 20 10 0 6 -13 10 -30 10 -29 0 -30 -2
-30 -45z"/>
<path d="M577 2163 c-6 -9 -1 -80 4 -74 2 2 14 -1 27 -8 19 -10 26 -10 38 0 9
8 18 9 22 3 12 -16 42 -16 42 1 0 20 10 19 25 -2 7 -9 26 -18 44 -19 29 -2 31
0 31 29 l0 32 21 -32 c12 -18 25 -33 30 -33 12 0 11 77 -1 85 -6 4 -10 -6 -10
-22 l0 -28 -25 30 c-25 30 -27 29 -29 -15 -1 -15 -8 -26 -18 -28 -15 -3 -18 4
-18 32 0 35 -1 36 -36 36 -33 0 -36 -2 -30 -24 3 -14 2 -28 -4 -31 -6 -4 -10
8 -11 27 -1 31 -1 32 -9 8 l-8 -25 -1 27 c-1 19 -5 26 -15 22 -8 -3 -17 -1
-21 5 -7 13 -41 15 -48 4z"/>
<path d="M2383 2153 c-8 -3 -11 -14 -7 -29 8 -31 -9 -31 -26 1 -19 35 -30 31
-30 -10 0 -24 -5 -35 -15 -35 -10 0 -15 10 -15 34 0 32 -2 34 -32 33 -31 -2
-33 -4 -36 -44 -2 -26 1 -43 7 -43 6 0 11 7 11 15 0 20 16 19 24 -1 4 -10 16
-14 38 -12 25 2 34 9 38 28 l6 25 13 -23 c12 -23 38 -25 34 -3 -2 6 2 11 7 11
6 0 10 -4 10 -9 0 -13 25 -20 49 -14 17 4 21 13 21 44 0 28 -4 39 -15 39 -8 0
-15 -8 -15 -17 -1 -17 -1 -17 -11 0 -10 17 -31 21 -56 10z"/>
<path d="M930 2101 c0 -22 5 -43 10 -46 6 -3 10 4 10 17 l0 23 21 -25 21 -25
-6 27 c-3 15 -2 29 4 33 18 11 -2 35 -31 35 -27 0 -29 -3 -29 -39z"/>
<path d="M1009 2136 c-3 -3 -3 -23 0 -44 5 -31 10 -37 31 -37 20 0 26 7 31 35
4 19 3 39 -2 45 -5 5 -9 -5 -9 -29 0 -30 -3 -37 -17 -34 -12 2 -20 15 -23 37
-3 18 -8 30 -11 27z"/>
<path d="M1088 2101 c-2 -23 0 -45 4 -47 4 -3 8 7 8 23 l1 28 20 -27 c28 -38
35 -35 35 11 -1 45 -16 69 -16 25 l0 -29 -24 30 -23 29 -5 -43z"/>
<path d="M1259 2133 c0 -5 -2 -25 -4 -45 -2 -21 0 -38 5 -38 6 0 10 7 10 15 0
8 4 15 9 15 5 0 11 -7 15 -15 10 -27 21 -16 21 20 0 35 -16 55 -42 55 -7 0
-13 -3 -14 -7z"/>
<path d="M1396 2128 c-5 -10 -6 -24 -3 -31 7 -19 -8 -41 -22 -33 -6 4 -11 20
-11 37 0 16 -4 29 -10 29 -11 0 -13 -39 -4 -64 8 -20 53 -21 60 -2 3 8 4 29 2
48 -3 26 -6 29 -12 16z"/>
<path d="M1957 2133 c-3 -5 -1 -26 3 -48 4 -22 8 -32 9 -22 1 21 17 22 25 2 3
-8 10 -15 16 -15 7 0 8 6 1 18 -7 13 -7 22 1 30 8 8 8 15 -2 27 -13 16 -46 20
-53 8z"/>
<path d="M2030 2111 c0 -57 27 -80 58 -49 9 9 12 9 12 -1 0 -7 5 -9 10 -6 6 3
7 18 3 33 -6 24 -5 26 10 13 20 -16 22 -2 3 24 -19 27 -46 13 -46 -25 0 -20
-5 -30 -15 -30 -10 0 -15 11 -15 35 0 19 -4 35 -10 35 -5 0 -10 -13 -10 -29z"/>
<path d="M2147 2108 c-3 -21 0 -38 9 -48 12 -12 14 -8 14 33 0 54 -15 63 -23
15z"/>
<path d="M1430 2090 c0 -22 5 -40 10 -40 6 0 10 12 10 28 l1 27 17 -27 c23
-39 32 -35 31 15 -1 23 -4 32 -6 20 -5 -28 -14 -29 -31 -3 -19 31 -32 24 -32
-20z"/>
<path d="M1614 2090 c-1 -22 2 -40 7 -40 5 0 9 7 9 15 0 8 4 15 9 15 5 0 11
-7 15 -15 3 -8 11 -15 18 -15 9 0 9 3 0 12 -8 8 -9 15 -1 25 18 20 2 43 -28
43 -26 0 -28 -3 -29 -40z"/>
<path d="M1700 2103 c0 -39 13 -55 41 -51 20 2 25 10 27 41 2 21 -1 37 -7 37
-6 0 -11 -16 -11 -36 0 -45 -24 -42 -28 4 -4 39 -22 43 -22 5z"/>
<path d="M1790 2091 c0 -44 19 -58 22 -16 0 14 1 30 2 37 1 6 -5 13 -11 16 -9
2 -13 -9 -13 -37z"/>
<path d="M1840 2109 c0 -11 -4 -17 -10 -14 -13 8 -13 -1 0 -26 17 -31 30 -22
30 21 0 22 -4 40 -10 40 -5 0 -10 -9 -10 -21z"/>
<path d="M467 2063 c-4 -3 -7 -24 -7 -45 l0 -40 40 3 c21 2 42 0 46 -4 4 -4
19 -7 33 -6 26 0 26 0 4 9 -13 5 -23 14 -23 21 0 6 7 9 15 6 8 -4 17 -2 20 3
4 6 -1 10 -9 10 -22 0 -20 20 2 21 9 1 -10 7 -43 15 -72 16 -70 16 -78 7z"/>
<path d="M2510 2035 c-5 -14 -15 -25 -21 -25 -6 0 -8 7 -5 15 8 21 -20 31 -40
14 -15 -12 -14 -15 5 -30 27 -22 27 -32 1 -24 -24 7 -27 -10 -4 -19 24 -9 31
-8 49 11 9 9 20 12 23 7 6 -8 27 -10 56 -5 6 0 2 7 -8 14 -17 13 -18 14 -2 20
10 4 14 12 10 18 -3 6 0 15 7 20 9 6 2 9 -24 9 -31 0 -39 -4 -47 -25z"/>
<path d="M642 2038 c-18 -18 -15 -27 14 -38 14 -6 22 -14 19 -20 -4 -7 -13 -6
-27 1 -16 9 -19 8 -16 -3 3 -7 19 -14 36 -16 27 -3 32 0 32 17 0 27 30 28 37
1 5 -20 23 -28 23 -10 0 15 21 12 42 -7 18 -16 19 -16 25 6 l6 24 17 -23 c17
-22 17 -22 16 21 -1 40 -3 44 -28 47 -25 3 -28 0 -29 -25 l-1 -28 -11 28 c-13
33 -23 34 -33 5 l-8 -23 -7 25 c-4 16 -7 19 -8 8 -1 -25 -37 -23 -44 2 -6 22
-36 27 -55 8z"/>
<path d="M890 1995 c0 -44 1 -45 31 -45 17 0 28 4 24 10 -3 5 -12 7 -19 4 -8
-3 -17 -1 -21 5 -3 6 4 15 17 20 l23 10 -22 0 c-32 1 -29 21 3 21 14 0 23 4
19 10 -3 6 -17 10 -31 10 -22 0 -24 -4 -24 -45z"/>
<path d="M2157 2034 c-4 -4 -20 -8 -35 -9 -37 0 -43 -32 -8 -41 14 -3 23 -10
20 -15 -3 -5 -17 -6 -31 -3 -18 5 -24 4 -19 -5 12 -18 84 -9 90 12 6 23 27 22
33 -3 6 -22 18 -26 28 -10 3 6 15 10 26 10 10 0 19 -4 19 -10 0 -5 5 -10 10
-10 6 0 10 9 10 20 0 25 13 26 31 2 11 -14 21 -17 44 -12 24 6 25 8 8 9 -28 1
-31 21 -3 21 11 0 20 5 20 10 0 6 -9 10 -20 10 -27 0 -25 18 3 23 12 2 -4 4
-35 5 -56 1 -58 0 -58 -26 l-1 -27 -16 30 -17 30 -10 -27 c-11 -31 -27 -38
-19 -9 3 10 0 22 -6 25 -7 4 -11 -1 -11 -13 0 -29 -37 -28 -42 0 -2 11 -7 17
-11 13z m3 -36 c0 -15 -4 -16 -25 -6 -32 14 -32 26 0 24 16 -1 25 -7 25 -18z"/>
<path d="M1047 2016 c-6 -16 11 -36 30 -36 7 0 13 -5 13 -11 0 -7 -10 -9 -25
-5 -30 8 -34 -10 -4 -19 30 -10 57 18 39 39 -7 9 -19 16 -27 16 -8 0 -12 4 -9
9 3 5 16 7 28 3 14 -3 19 -2 14 6 -10 17 -53 15 -59 -2z"/>
<path d="M1120 1991 c0 -22 5 -43 10 -46 6 -3 10 3 10 14 0 14 6 21 20 21 14
0 20 -7 20 -22 0 -32 6 -18 14 30 4 26 2 42 -4 42 -5 0 -10 -7 -10 -15 0 -8
-9 -15 -20 -15 -11 0 -20 7 -20 15 0 8 -4 15 -10 15 -5 0 -10 -18 -10 -39z"/>
<path d="M1224 1995 c-18 -44 -19 -64 -2 -47 15 15 48 16 48 0 0 -6 3 -9 6 -6
8 8 -17 88 -28 88 -5 0 -16 -16 -24 -35z"/>
<path d="M1300 1985 c0 -25 5 -45 10 -45 6 0 10 10 10 23 l0 22 21 -25 c18
-22 20 -23 17 -5 -1 11 1 26 6 33 11 18 -12 42 -40 42 -22 0 -24 -4 -24 -45z"/>
<path d="M1397 1993 c-2 -21 -2 -41 0 -45 6 -12 53 -10 53 2 0 6 -9 10 -20 10
-27 0 -25 18 3 23 l22 4 -22 2 c-28 1 -31 21 -3 21 11 0 20 5 20 10 0 6 -11
10 -24 10 -20 0 -25 -6 -29 -37z"/>
<path d="M1584 2015 c-7 -18 3 -35 22 -35 8 0 14 -5 14 -11 0 -7 -9 -9 -21 -6
-13 3 -19 1 -16 -6 6 -20 46 -20 54 -1 4 11 -2 23 -18 35 l-24 19 23 0 c13 0
20 4 17 10 -9 15 -45 12 -51 -5z"/>
<path d="M1660 1985 c0 -25 5 -45 10 -45 6 0 10 9 10 20 0 29 38 27 42 -2 3
-14 6 -6 9 20 2 24 1 46 -3 48 -4 3 -8 -4 -8 -15 0 -14 -6 -21 -20 -21 -13 0
-20 7 -20 20 0 11 -4 20 -10 20 -5 0 -10 -20 -10 -45z"/>
<path d="M1767 1988 c-9 -23 -14 -44 -11 -47 4 -3 9 0 11 7 5 14 43 16 43 2 0
-5 4 -10 9 -10 6 0 3 20 -6 45 -8 25 -18 45 -22 45 -5 0 -15 -19 -24 -42z"/>
<path d="M1840 1985 c0 -25 5 -45 10 -45 6 0 10 10 10 23 l0 22 20 -25 c10
-14 22 -21 26 -17 4 4 2 13 -4 19 -8 8 -9 15 -1 25 18 21 2 43 -31 43 -29 0
-30 -2 -30 -45z"/>
<path d="M1930 1985 c0 -43 1 -45 30 -45 17 0 30 5 30 10 0 6 -9 10 -20 10
-11 0 -20 5 -20 10 0 6 7 10 15 10 21 0 19 18 -2 23 -14 4 -12 5 5 6 33 2 27
21 -8 21 -29 0 -30 -2 -30 -45z"/>
<path d="M429 1952 c10 -8 11 -14 1 -32 -10 -18 -9 -24 1 -31 26 -17 157 -31
165 -18 7 12 44 11 44 -1 0 -5 7 -10 15 -10 10 0 15 11 15 35 0 47 18 45 22
-2 3 -33 7 -38 31 -41 15 -2 27 1 27 7 0 6 -9 11 -20 11 -11 0 -20 5 -20 10 0
6 7 10 15 10 8 0 15 5 15 10 0 6 -7 10 -15 10 -24 0 -17 20 8 22 12 0 -21 4
-73 8 -52 4 -129 10 -170 14 -48 5 -70 4 -61 -2z m81 -42 c0 -16 -4 -30 -10
-30 -5 0 -10 4 -10 10 0 5 -7 7 -15 4 -8 -4 -15 -1 -15 5 0 6 6 10 13 9 6 -2
11 5 9 15 -2 10 3 17 13 17 10 0 15 -10 15 -30z"/>
<path d="M2557 1954 c-6 -7 -38 -10 -125 -13 l-43 -1 3 -42 3 -43 60 3 c41 2
64 9 74 20 10 12 15 14 18 5 12 -33 83 1 83 38 0 30 -52 53 -73 33z m53 -34
c0 -11 -7 -23 -15 -27 -22 -8 -33 6 -15 17 10 7 11 10 3 10 -7 0 -13 5 -13 10
0 6 9 10 20 10 13 0 20 -7 20 -20z m-175 -20 c0 -13 -6 -25 -12 -27 -9 -3 -13
6 -13 27 0 21 4 30 13 28 6 -3 12 -15 12 -28z"/>
<path d="M810 1895 c0 -40 2 -45 23 -45 13 0 28 5 34 11 8 8 13 8 17 0 4 -6
19 -10 34 -10 24 2 24 2 5 6 -26 5 -31 23 -8 23 8 0 15 5 15 10 0 6 -7 10 -15
10 -23 0 -18 18 8 23 19 4 19 4 -5 6 -15 0 -30 -4 -33 -9 -4 -6 -12 -4 -21 5
-9 8 -24 15 -35 15 -16 0 -19 -7 -19 -45z m48 -2 c2 -11 -4 -23 -12 -26 -12
-5 -16 1 -16 24 0 35 23 36 28 2z"/>
<path d="M2265 1930 c-22 -4 -34 -8 -27 -9 7 0 12 -15 12 -36 0 -19 5 -35 10
-35 6 0 10 16 10 35 0 19 5 35 10 35 6 0 10 -16 10 -35 0 -32 2 -35 30 -35 17
0 30 5 30 10 0 6 -9 10 -20 10 -27 0 -25 18 3 23 l22 4 -22 2 c-28 1 -31 21
-3 21 11 0 20 5 20 10 0 11 -24 11 -85 0z"/>
<path d="M958 1923 c-4 -7 -4 -51 1 -75 2 -13 38 -9 48 5 6 6 9 26 9 42 -1 25
-6 31 -28 33 -14 2 -28 0 -30 -5z"/>
<path d="M1040 1890 c-7 -22 -10 -43 -7 -47 4 -3 7 -1 7 5 0 16 33 15 48 0 17
-17 15 1 -3 46 -8 20 -19 36 -24 36 -4 0 -14 -18 -21 -40z"/>
<path d="M1110 1920 c0 -5 5 -10 10 -10 6 0 10 -16 10 -35 0 -19 5 -35 10 -35
6 0 10 16 10 35 0 24 5 35 15 35 8 0 15 5 15 10 0 6 -16 10 -35 10 -19 0 -35
-4 -35 -10z"/>
<path d="M1194 1916 c-3 -8 -4 -27 -2 -43 2 -22 9 -29 31 -31 15 -2 27 1 27 7
0 6 -9 11 -20 11 -27 0 -25 18 3 23 l22 4 -22 2 c-28 1 -31 21 -3 21 11 0 20
5 20 10 0 15 -50 12 -56 -4z"/>
<path d="M1354 1906 c-10 -41 -1 -61 29 -64 21 -3 29 2 39 24 11 23 10 28 -11
45 -31 26 -49 24 -57 -5z m54 -20 c4 -19 -16 -39 -30 -30 -4 3 -8 16 -8 30 0
19 5 25 17 22 10 -2 19 -12 21 -22z"/>
<path d="M1457 1923 c-4 -3 -7 -24 -7 -45 0 -36 2 -38 31 -38 17 0 28 4 24 10
-3 5 -12 7 -19 4 -8 -3 -17 -1 -20 4 -3 5 4 13 17 17 l22 8 -22 4 c-31 6 -29
23 3 23 14 0 23 4 19 10 -7 11 -38 13 -48 3z"/>
<path d="M1537 1923 c-4 -3 -7 -24 -7 -45 0 -36 2 -38 30 -38 28 0 30 2 30 39
0 26 -5 41 -16 45 -20 8 -29 8 -37 -1z"/>
<path d="M1700 1920 c0 -6 7 -10 16 -10 11 0 15 -8 12 -30 -1 -16 2 -30 7 -31
6 0 9 13 7 30 -3 24 0 31 14 31 27 0 7 13 -26 17 -16 1 -30 -2 -30 -7z"/>
<path d="M1797 1923 c-4 -3 -7 -24 -7 -45 0 -36 2 -38 31 -38 18 0 28 4 24 10
-4 6 -13 9 -20 8 -8 -2 -14 2 -14 7 0 6 7 9 15 7 8 -2 14 2 14 8 0 5 -7 10
-15 10 -8 0 -15 5 -15 10 0 6 9 10 21 10 11 0 17 5 14 10 -7 11 -38 13 -48 3z"/>
<path d="M1947 1923 c-4 -3 -7 -24 -7 -45 0 -39 14 -47 54 -32 19 7 21 55 4
72 -13 13 -41 16 -51 5z m48 -38 c0 -11 -8 -21 -17 -23 -14 -3 -18 3 -18 23 0
20 4 26 18 23 9 -2 17 -12 17 -23z"/>
<path d="M2030 1885 c0 -41 2 -45 25 -45 14 0 25 5 25 10 0 6 -9 10 -20 10
-28 0 -25 20 3 21 21 0 21 1 -3 11 -25 11 -25 11 -2 15 30 6 28 23 -3 23 -23
0 -25 -4 -25 -45z"/>
<path d="M2100 1885 l0 -47 37 7 c21 4 41 12 45 18 6 9 12 9 28 -1 23 -14 24
-8 9 37 -14 39 -27 40 -41 0 -11 -32 -23 -30 -23 4 0 17 -7 23 -27 25 -27 3
-28 2 -28 -43z"/>
<path d="M1625 1883 c-8 -20 -12 -39 -9 -42 4 -3 9 0 11 7 3 6 13 12 23 12 10
0 20 -6 23 -12 2 -7 7 -11 10 -8 7 7 -23 80 -34 80 -5 0 -16 -16 -24 -37z"/>
<path d="M388 1864 c-14 -14 -8 -54 11 -73 13 -13 35 -20 68 -20 26 -1 63 -3
81 -5 31 -3 32 -2 32 35 0 21 -4 41 -10 44 -6 4 -10 -6 -10 -24 0 -28 -15 -49
-27 -37 -3 3 -5 17 -5 31 0 29 -3 31 -70 40 l-48 6 -1 -33 c-2 -33 -2 -33 -8
5 -3 22 -9 35 -13 31z m61 -46 c1 31 21 28 21 -4 0 -35 -34 -29 -37 6 l-2 25
8 -25 c9 -24 9 -24 10 -2z"/>
<path d="M2588 1855 c-2 -3 -15 -6 -29 -8 -19 -3 -25 -11 -29 -37 -3 -18 -11
-35 -17 -38 -13 -4 -15 2 -17 43 -1 14 -9 21 -29 23 -27 3 -28 2 -25 -40 2
-24 8 -42 13 -41 6 0 44 4 85 8 105 10 120 17 120 58 0 31 -2 34 -34 35 -18 1
-35 -1 -38 -3z m2 -45 c0 -16 -4 -30 -10 -30 -5 0 -10 14 -10 30 0 17 5 30 10
30 6 0 10 -13 10 -30z"/>
<path d="M590 1801 c0 -38 1 -39 42 -46 36 -6 44 -4 59 14 28 34 7 71 -38 71
-20 0 -23 -5 -23 -35 0 -19 -4 -35 -10 -35 -5 0 -10 16 -10 35 0 19 -4 35 -10
35 -5 0 -10 -18 -10 -39z m95 -6 c0 -11 -8 -21 -17 -23 -14 -3 -18 3 -18 23 0
20 4 26 18 23 9 -2 17 -12 17 -23z"/>
<path d="M750 1796 l0 -45 63 2 62 2 3 38 c2 20 -1 37 -7 37 -5 0 -11 -15 -13
-32 -4 -44 -32 -45 -36 -2 -2 23 -9 34 -25 38 -42 11 -47 8 -47 -38z"/>
<path d="M2347 1833 c-4 -3 -7 -21 -7 -40 0 -23 -5 -33 -15 -33 -10 0 -15 11
-15 35 0 19 -5 35 -11 35 -6 0 -9 -16 -7 -37 3 -35 6 -38 37 -41 59 -6 81 5
81 38 0 36 -42 64 -63 43z m49 -28 c6 -16 -12 -45 -27 -45 -5 0 -9 14 -9 30 0
32 26 43 36 15z"/>
<path d="M900 1790 c0 -22 5 -40 10 -40 6 0 10 18 10 40 0 22 -4 40 -10 40 -5
0 -10 -18 -10 -40z"/>
<path d="M950 1785 c0 -41 2 -45 25 -45 14 0 25 5 25 10 0 6 -7 10 -15 10 -10
0 -15 11 -15 35 0 19 -4 35 -10 35 -5 0 -10 -20 -10 -45z"/>
<path d="M1014 1816 c-12 -31 1 -71 22 -74 23 -3 54 21 54 43 0 35 -64 61 -76
31z m51 -31 c0 -11 -8 -21 -17 -23 -14 -3 -18 3 -18 23 0 20 4 26 18 23 9 -2
17 -12 17 -23z"/>
<path d="M2110 1784 c0 -40 2 -44 24 -44 14 0 28 4 31 10 4 6 13 5 25 -2 14
-9 22 -9 34 1 17 15 22 81 6 81 -5 0 -10 -16 -10 -35 0 -24 -5 -35 -15 -35
-10 0 -15 10 -15 33 0 31 -2 33 -40 34 l-40 2 0 -45z"/>
<path d="M1170 1780 c0 -38 2 -40 30 -40 28 0 30 2 30 40 0 38 -2 40 -30 40
-28 0 -30 -2 -30 -40z"/>
<path d="M1251 1788 c-1 -27 4 -40 18 -48 26 -13 51 11 51 51 0 40 -18 37 -22
-3 -4 -46 -31 -44 -39 2 l-6 35 -2 -37z"/>
<path d="M1350 1780 c0 -22 5 -40 10 -40 6 0 10 18 10 40 0 22 -4 40 -10 40
-5 0 -10 -18 -10 -40z"/>
<path d="M1410 1781 c0 -31 4 -41 21 -46 12 -4 26 -2 32 4 8 8 5 11 -11 11
-18 0 -22 6 -22 35 0 19 -4 35 -10 35 -5 0 -10 -18 -10 -39z"/>
<path d="M1490 1781 c0 -22 5 -43 10 -46 18 -11 50 6 56 31 8 30 -11 54 -42
54 -21 0 -24 -5 -24 -39z m48 -5 c-4 -31 -38 -34 -38 -3 0 29 7 37 27 30 8 -3
13 -15 11 -27z"/>
<path d="M1652 1778 c3 -46 21 -59 50 -36 11 9 15 23 11 46 -5 28 -9 32 -35
32 -28 0 -29 -1 -26 -42z"/>
<path d="M1730 1785 c0 -39 24 -60 53 -44 18 11 25 79 7 79 -5 0 -10 -16 -10
-35 0 -24 -5 -35 -15 -35 -10 0 -15 11 -15 35 0 19 -4 35 -10 35 -5 0 -10 -16
-10 -35z"/>
<path d="M1840 1778 c0 -23 3 -38 6 -35 10 10 12 77 2 77 -4 0 -8 -19 -8 -42z"/>
<path d="M1890 1780 c0 -39 1 -40 33 -39 23 1 26 3 10 6 -19 4 -23 11 -23 39
0 19 -4 34 -10 34 -5 0 -10 -18 -10 -40z"/>
<path d="M1960 1781 c0 -36 3 -41 23 -41 35 0 49 15 45 46 -2 25 -8 29 -35 32
-32 3 -33 2 -33 -37z m45 -1 c0 -13 -6 -25 -12 -27 -9 -3 -13 6 -13 27 0 21 4
30 13 28 6 -3 12 -15 12 -28z"/>
<path d="M366 1749 c-2 -8 -7 -26 -10 -41 -6 -25 -4 -28 21 -28 16 0 44 -4 63
-10 22 -6 38 -6 44 0 7 7 6 10 -2 10 -7 0 -12 6 -12 13 1 6 10 1 20 -12 23
-26 22 -27 24 14 1 19 8 31 19 33 18 4 23 -13 7 -23 -15 -9 5 -41 29 -48 11
-3 26 1 32 9 10 12 15 12 35 -1 13 -8 33 -14 46 -14 13 0 73 -2 135 -5 95 -5
112 -3 117 10 7 19 -1 34 -19 34 -8 0 -17 5 -21 12 -5 8 0 9 14 6 15 -4 22 -2
22 8 0 16 -36 19 -45 4 -4 -7 -11 -8 -18 -2 -7 5 -37 10 -67 11 -30 1 -73 3
-95 5 -22 1 -46 -2 -53 -7 -9 -7 -17 -6 -25 2 -8 8 -14 7 -22 -8 -7 -13 -16
-16 -30 -11 -19 8 -19 8 4 17 20 8 10 11 -55 16 -43 4 -96 10 -116 13 -28 5
-39 3 -42 -7z m444 -44 c0 -9 11 -20 25 -25 37 -14 31 -18 -25 -18 -27 -1 -50
3 -50 9 0 5 9 9 20 9 11 0 20 5 20 10 0 6 -9 10 -21 10 -11 0 -17 5 -14 10 10
16 45 12 45 -5z m58 -3 c10 -10 27 -22 38 -27 17 -7 17 -9 2 -12 -17 -4 -78
34 -78 49 0 14 19 9 38 -10z"/>
<path d="M2622 1750 c-13 -6 -54 -10 -93 -11 -38 -1 -72 -5 -75 -10 -2 -4 -11
-6 -18 -3 -9 4 -19 -7 -27 -30 -16 -44 -39 -48 -39 -7 0 23 5 31 23 34 12 3
-5 4 -38 3 l-59 -1 -2 -38 c0 -21 3 -40 8 -43 4 -3 8 4 8 15 0 24 15 28 24 6
6 -17 76 -21 76 -5 0 6 9 10 20 10 11 0 20 -5 20 -10 0 -7 21 -9 58 -5 97 9
121 15 131 33 10 16 10 16 11 0 0 -11 8 -18 18 -18 28 0 33 10 18 39 -7 14
-11 32 -9 39 5 14 -21 15 -55 2z m-66 -35 c-4 -11 1 -15 19 -15 14 0 25 -4 25
-9 0 -13 -27 -21 -45 -15 -17 7 -21 54 -4 54 6 0 9 -7 5 -15z"/>
<path d="M1014 1718 c-11 -18 -14 -78 -4 -78 6 0 10 7 10 15 0 8 4 15 9 15 5
0 11 -7 15 -15 10 -27 21 -16 21 21 0 29 -5 39 -22 45 -14 5 -25 4 -29 -3z"/>
<path d="M1098 1723 c-13 -3 -18 -15 -18 -44 0 -38 1 -39 35 -39 19 0 44 6 55
13 17 10 22 9 30 -3 17 -27 20 -3 5 33 -19 46 -30 47 -45 2 -9 -27 -17 -35
-36 -35 -13 0 -24 5 -24 10 0 6 7 10 15 10 8 0 15 5 15 10 0 6 -7 10 -15 10
-8 0 -15 5 -15 10 0 6 9 10 20 10 11 0 20 5 20 10 0 10 -12 11 -42 3z"/>
<path d="M2055 1720 c-3 -5 -3 -22 1 -37 7 -27 6 -28 -13 -10 -11 9 -25 17
-32 17 -7 0 -9 5 -6 11 4 6 13 8 21 5 8 -3 14 -1 14 4 0 6 -11 10 -25 10 -31
0 -35 -35 -5 -45 22 -7 27 -25 8 -25 -19 1 -89 46 -82 53 3 3 12 3 20 0 8 -3
14 0 14 6 0 16 -47 14 -53 -3 -6 -16 11 -36 30 -36 7 0 13 -4 13 -10 0 -5 -13
-8 -29 -7 -23 2 -31 9 -41 35 -14 39 -25 41 -38 5 -5 -16 -13 -37 -18 -48 -7
-20 -7 -20 14 -1 15 13 25 16 34 9 13 -10 30 -13 66 -13 9 0 51 1 92 2 41 1
65 3 53 5 -13 3 -23 11 -23 20 0 9 6 13 15 9 8 -3 15 -1 15 4 0 6 -7 10 -15
10 -8 0 -15 5 -15 10 0 6 9 10 20 10 11 0 20 5 20 10 0 13 -47 13 -55 0z"/>
<path d="M2129 1714 c-11 -14 -10 -18 6 -30 10 -8 23 -14 28 -14 4 0 5 -5 2
-10 -4 -6 -16 -8 -27 -4 -13 4 -18 2 -14 -4 8 -13 97 -13 113 0 14 12 6 38
-12 38 -8 0 -17 5 -21 12 -5 8 0 9 14 6 12 -4 22 -2 22 3 0 15 -29 22 -43 11
-8 -7 -18 -7 -27 -2 -21 13 -26 12 -41 -6z m53 -17 c7 -7 21 -16 31 -20 10 -4
15 -12 12 -18 -5 -7 -14 -5 -28 6 -12 9 -30 18 -39 22 -10 3 -18 9 -18 14 0
13 27 11 42 -4z"/>
<path d="M1237 1713 c-13 -13 -7 -32 13 -38 11 -3 20 -11 20 -17 0 -6 -9 -8
-20 -5 -11 3 -20 2 -20 -3 0 -12 28 -20 45 -14 22 9 18 42 -5 49 -11 3 -20 11
-20 16 0 6 9 7 21 4 15 -5 19 -4 15 4 -8 12 -39 15 -49 4z"/>
<path d="M1307 1706 c-6 -16 11 -36 30 -36 7 0 13 -5 13 -11 0 -7 -10 -9 -27
-4 -27 6 -27 6 -10 -12 13 -13 21 -15 34 -7 27 17 26 33 -1 45 -26 12 -27 33
-1 22 8 -3 15 0 15 6 0 16 -47 14 -53 -3z"/>
<path d="M1382 1678 c3 -39 6 -43 31 -46 15 -2 27 1 27 7 0 6 -9 11 -20 11
-11 0 -20 5 -20 10 0 6 7 10 15 10 8 0 15 5 15 11 0 6 -7 9 -15 5 -8 -3 -15
-1 -15 4 0 6 6 10 14 10 8 0 18 5 21 10 4 6 -7 10 -25 10 -30 0 -31 -1 -28
-42z"/>
<path d="M1464 1705 c-7 -18 3 -35 22 -35 8 0 14 -5 14 -11 0 -7 -10 -9 -27
-4 -23 5 -25 4 -14 -9 17 -21 50 -20 58 0 4 11 -2 23 -18 35 l-24 19 23 0 c13
0 20 4 17 10 -9 15 -45 12 -51 -5z"/>
<path d="M1544 1705 c-7 -18 3 -35 22 -35 8 0 14 -5 14 -11 0 -7 -9 -9 -21 -6
-13 3 -19 1 -16 -6 2 -7 14 -12 28 -12 35 0 36 30 2 49 l-28 15 28 1 c16 0 26
4 22 10 -9 15 -45 12 -51 -5z"/>
<path d="M1691 1673 c1 -27 3 -40 6 -30 6 21 12 21 35 0 10 -9 18 -11 18 -5 0
6 -5 14 -10 17 -8 5 -7 11 1 21 17 20 3 44 -26 44 -23 0 -25 -3 -24 -47z"/>
<path d="M1770 1675 c0 -41 2 -45 25 -45 14 0 25 5 25 10 0 6 -9 10 -20 10
-11 0 -20 5 -20 10 0 6 9 10 21 10 11 0 17 5 14 10 -4 6 -10 8 -15 5 -5 -3
-11 -1 -15 5 -3 5 3 10 14 10 12 0 21 5 21 10 0 6 -11 10 -25 10 -23 0 -25 -4
-25 -45z"/>
<path d="M350 1622 l0 -40 80 -12 c44 -7 87 -9 96 -6 9 3 22 1 30 -5 8 -7 19
-7 31 -1 10 5 24 7 31 5 8 -3 12 7 12 32 0 23 -4 35 -12 34 -7 -1 -21 1 -30 5
-25 11 -49 0 -42 -19 7 -17 -9 -19 -41 -5 -19 8 -19 8 5 18 l25 11 -25 1 c-29
2 -46 4 -112 15 l-48 7 0 -40z m40 -2 c0 -16 -4 -30 -10 -30 -5 0 -10 14 -10
30 0 17 5 30 10 30 6 0 10 -13 10 -30z m69 -30 c-8 -6 -17 -1 -24 13 -17 32
-6 42 17 17 17 -18 18 -24 7 -30z m139 2 c-2 -9 -11 -18 -21 -20 -13 -3 -17 3
-17 28 0 28 2 30 21 20 11 -6 19 -19 17 -28z"/>
<path d="M2619 1646 c-3 -3 -37 -7 -75 -9 l-69 -3 1 -37 c1 -21 3 -40 6 -42 8
-8 182 16 195 27 8 6 13 23 11 37 -2 21 -9 27 -33 29 -17 2 -33 1 -36 -2z m-1
-30 c17 -10 15 -26 -3 -26 -8 0 -15 5 -15 10 0 6 -9 10 -20 10 -11 0 -20 4
-20 8 0 9 42 8 58 -2z m-93 -21 c0 -11 -8 -21 -17 -23 -14 -3 -18 3 -18 23 0
20 4 26 18 23 9 -2 17 -12 17 -23z"/>
<path d="M640 1615 c0 -8 9 -19 20 -25 28 -15 26 -33 -2 -25 -17 6 -20 4 -12
-4 7 -7 58 -12 140 -14 115 -2 129 0 132 15 2 12 -6 21 -22 28 -31 11 -35 25
-6 17 11 -3 23 -1 26 4 6 10 0 11 -71 13 -48 2 -50 1 -55 -29 -7 -41 -34 -40
-38 3 -3 32 -4 32 -58 32 -41 0 -54 -4 -54 -15z m95 -25 c0 -27 -22 -39 -31
-16 -8 22 3 49 19 43 6 -2 12 -14 12 -27z m144 -8 c15 -12 20 -22 13 -26 -6
-3 -19 2 -29 12 -10 10 -26 22 -36 25 -10 4 -15 11 -12 17 7 11 24 4 64 -28z"/>
<path d="M977 1623 c-4 -3 -7 -24 -7 -45 0 -38 1 -39 33 -36 27 3 32 7 35 33
5 38 -38 72 -61 48z m47 -29 c6 -17 -9 -44 -25 -44 -5 0 -9 14 -9 30 0 33 23
42 34 14z"/>
<path d="M2210 1616 c-16 -16 -12 -26 17 -37 19 -7 23 -13 15 -21 -8 -8 -16
-7 -28 3 -15 12 -17 12 -12 -1 4 -12 24 -15 94 -15 121 0 158 6 162 28 3 12
-4 20 -17 24 -12 3 -21 10 -21 15 0 5 9 6 20 3 11 -4 20 -2 20 4 0 6 -21 11
-49 11 -49 0 -50 -1 -53 -32 -2 -22 -9 -34 -20 -36 -14 -3 -18 4 -18 32 l0 35
-50 -1 c-27 -1 -54 -6 -60 -12z m190 -6 c0 -6 11 -16 25 -22 28 -12 33 -28 10
-28 -8 0 -15 5 -15 10 0 6 -11 15 -25 22 -13 6 -22 15 -19 19 7 12 24 11 24
-1z m-100 -25 c0 -16 -6 -25 -15 -25 -9 0 -15 9 -15 25 0 16 6 25 15 25 9 0
15 -9 15 -25z"/>
<path d="M1060 1580 c0 -22 5 -40 10 -40 6 0 10 18 10 40 0 22 -4 40 -10 40
-5 0 -10 -18 -10 -40z"/>
<path d="M1115 1610 c-8 -13 13 -40 31 -40 8 0 14 -5 14 -11 0 -7 -10 -9 -25
-5 -14 4 -25 2 -25 -3 0 -15 30 -22 50 -11 14 7 25 7 39 -2 15 -9 23 -9 33 0
10 8 18 8 25 1 6 -6 20 -8 32 -4 17 5 21 14 20 48 l-2 42 -6 -35 c-8 -49 -41
-55 -41 -8 0 30 -3 33 -32 35 -17 1 -37 -2 -44 -8 -8 -7 -14 -7 -19 1 -8 13
-42 13 -50 0z m115 -15 c15 -18 6 -45 -15 -45 -18 0 -30 24 -21 45 7 19 20 19
36 0z"/>
<path d="M1327 1613 c-14 -14 -6 -34 18 -43 32 -12 32 -24 0 -17 -16 3 -24 0
-22 -7 2 -6 13 -12 25 -14 32 -5 42 28 14 46 -28 18 -28 35 -1 27 15 -5 19 -4
15 4 -8 12 -39 15 -49 4z"/>
<path d="M1397 1614 c-14 -15 -6 -35 18 -44 32 -12 32 -24 0 -17 -16 3 -24 0
-22 -7 5 -16 36 -20 52 -6 21 18 18 29 -10 40 -30 11 -33 25 -4 17 13 -3 19
-1 16 6 -4 14 -39 21 -50 11z"/>
<path d="M1530 1575 c0 -40 2 -45 23 -45 29 0 47 18 47 47 0 23 -26 43 -54 43
-12 0 -16 -11 -16 -45z m50 0 c0 -16 -6 -25 -15 -25 -9 0 -15 9 -15 25 0 16 6
25 15 25 9 0 15 -9 15 -25z"/>
<path d="M1630 1574 c0 -27 4 -43 10 -39 6 3 10 24 10 46 0 21 -4 39 -10 39
-5 0 -10 -21 -10 -46z"/>
<path d="M1687 1613 c-14 -14 -6 -34 18 -43 14 -5 25 -12 25 -16 0 -3 -11 -4
-25 -2 -14 3 -25 1 -25 -4 0 -15 32 -22 49 -11 11 7 23 7 39 0 16 -7 26 -7 34
1 7 7 15 8 28 0 25 -16 50 -3 50 26 0 24 2 25 25 14 30 -13 34 -33 5 -25 -11
3 -20 1 -20 -4 0 -15 27 -21 47 -11 11 6 25 7 34 1 10 -5 23 -4 35 5 15 12 16
16 5 30 -7 9 -20 16 -28 16 -8 0 -11 5 -8 10 4 6 16 8 28 4 17 -5 19 -3 11 6
-16 17 -48 9 -52 -13 -3 -12 4 -20 17 -24 22 -6 29 -23 10 -23 -17 0 -79 40
-79 51 0 6 9 7 21 4 15 -5 19 -4 15 4 -9 15 -39 14 -54 -1 -9 -9 -12 -9 -13 3
-1 7 -4 -2 -8 -21 -8 -49 -41 -55 -41 -8 0 31 -3 33 -35 35 -28 2 -37 -2 -48
-22 -12 -23 -14 -24 -32 -10 -20 14 -19 14 3 15 13 0 20 4 17 10 -7 11 -38 13
-48 3z m124 -29 c10 -13 10 -17 -2 -25 -30 -19 -57 -3 -45 26 7 20 30 19 47
-1z"/>
<path d="M2080 1580 c0 -39 2 -41 26 -38 35 4 53 31 38 56 -6 9 -23 18 -38 20
-24 3 -26 1 -26 -38z m45 -1 c0 -15 -7 -25 -17 -27 -13 -3 -18 3 -18 21 0 13
3 27 7 31 13 12 28 -1 28 -25z"/>
<path d="M2160 1580 c0 -22 5 -40 10 -40 6 0 10 18 10 40 0 22 -4 40 -10 40
-5 0 -10 -18 -10 -40z"/>
<path d="M308 1554 c-13 -12 -9 -74 5 -75 6 0 22 -2 35 -3 12 -2 22 2 22 8 0
6 5 4 10 -5 7 -12 28 -16 97 -18 48 -1 96 -4 106 -7 9 -3 17 -1 17 5 0 6 7 11
15 11 8 0 15 -4 15 -10 0 -5 7 -10 15 -10 9 0 12 6 9 15 -9 22 9 18 24 -5 13
-21 56 -27 67 -10 4 6 -5 10 -19 10 -14 0 -26 5 -26 10 0 6 9 10 20 10 11 0
20 5 20 10 0 6 -6 10 -13 8 -7 -2 -13 2 -13 7 0 6 6 9 13 7 7 -2 13 2 13 8 0
7 -26 10 -72 9 -40 -1 -81 2 -90 6 -12 5 -19 2 -23 -9 -15 -49 -18 -51 -24
-21 -5 25 -11 31 -39 33 -22 2 -41 -3 -54 -15 -20 -18 -20 -17 -14 2 4 15 1
21 -12 22 -9 0 -35 4 -57 8 -22 3 -43 3 -47 -1z m158 -54 c-1 -16 -4 -30 -7
-30 -11 0 -19 29 -13 45 10 25 21 17 20 -15z"/>
<path d="M2670 1548 c-34 -8 -67 -12 -157 -16 -38 -2 -43 -5 -43 -25 0 -37
-12 -40 -26 -8 -11 25 -17 29 -51 28 -48 0 -63 -12 -63 -48 0 -32 17 -40 70
-33 19 2 52 4 73 4 36 -1 50 13 25 24 -7 3 -2 3 12 0 14 -4 27 -9 30 -13 9
-10 69 -11 75 -1 3 6 -3 10 -14 10 -12 0 -21 5 -21 10 0 16 37 12 44 -5 7 -19
36 -19 64 1 12 8 22 10 22 5 0 -6 7 -11 15 -11 12 0 13 4 6 18 -6 10 -8 28 -5
39 7 26 -11 32 -56 21z m-250 -64 c0 -15 -6 -24 -15 -24 -16 0 -19 17 -9 44 9
22 24 10 24 -20z m-45 1 c-1 -14 -4 -27 -7 -30 -9 -10 -30 24 -24 40 9 25 32
17 31 -10z"/>
<path d="M808 1519 c-21 -12 -24 -52 -4 -68 7 -6 24 -10 37 -10 13 1 29 1 34
-1 24 -6 44 1 48 18 4 16 5 16 6 0 1 -25 16 -22 29 5 l11 22 0 -22 c1 -25 21
-32 21 -8 0 8 9 15 19 15 20 0 35 25 25 41 -3 5 -20 9 -38 9 -26 0 -34 -5 -43
-27 l-10 -28 -11 28 c-9 22 -18 27 -46 27 -19 0 -40 2 -48 5 -7 2 -21 0 -30
-6z m37 -36 c2 -21 -17 -38 -29 -26 -3 4 -6 17 -6 30 0 32 33 28 35 -4z m55
-3 c0 -32 -26 -43 -36 -15 -9 21 3 45 21 45 10 0 15 -10 15 -30z"/>
<path d="M1046 1480 c-21 -52 -20 -57 4 -35 19 17 21 17 40 0 20 -18 21 -18
27 4 l6 24 19 -24 c19 -24 19 -24 13 -2 -3 13 -3 28 2 35 5 9 9 3 13 -17 4
-24 11 -31 33 -33 15 -2 27 1 27 7 0 6 -9 11 -20 11 -11 0 -20 5 -20 10 0 6 7
10 15 10 8 0 15 4 15 10 0 5 -7 7 -15 4 -8 -4 -15 -1 -15 5 0 6 9 11 20 11 11
0 20 5 20 10 0 13 -43 13 -57 -1 -8 -8 -13 -8 -17 0 -4 6 -18 11 -32 11 -19 0
-24 -5 -25 -27 l-1 -28 -10 28 c-13 37 -23 34 -42 -13z"/>
<path d="M1318 1509 c-21 -12 -24 -52 -5 -66 6 -5 40 -10 75 -11 58 -1 62 1
62 21 1 21 1 21 15 -3 l13 -25 11 28 c13 32 24 36 19 5 -2 -11 3 -23 10 -25 6
-3 12 2 12 11 0 9 6 16 14 16 7 0 19 7 26 15 16 20 3 35 -34 39 -21 3 -30 -3
-43 -28 l-17 -31 -10 27 c-10 28 -49 42 -76 28 -9 -5 -23 -5 -31 1 -17 11 -20
11 -41 -2z m47 -34 c0 -13 -8 -21 -22 -23 -17 -3 -23 2 -23 16 0 10 3 22 7 26
13 13 38 1 38 -19z m63 -1 c4 -27 -24 -39 -36 -16 -5 9 -7 23 -5 30 8 20 38 9
41 -14z"/>
<path d="M1602 1500 c-5 -14 -13 -36 -17 -50 -6 -20 -5 -23 6 -12 16 14 49 16
49 2 0 -5 7 -10 15 -10 8 0 15 7 15 15 0 8 4 15 9 15 5 0 11 -7 15 -15 3 -8
11 -15 17 -15 8 0 8 4 -1 15 -10 12 -10 18 1 31 11 14 10 18 -6 30 -31 23 -50
13 -47 -25 1 -20 -2 -30 -8 -26 -5 3 -10 12 -10 19 0 7 -6 21 -14 32 -14 18
-15 18 -24 -6z"/>
<path d="M1730 1475 c0 -44 1 -45 31 -45 19 0 28 4 24 11 -4 6 -13 8 -21 5 -7
-3 -16 -1 -19 5 -4 5 4 13 17 18 l23 10 -22 0 c-32 1 -29 21 3 21 14 0 23 4
19 10 -3 6 -17 10 -31 10 -22 0 -24 -4 -24 -45z"/>
<path d="M1865 1500 c-15 -16 -16 -25 -8 -43 10 -21 18 -24 72 -24 56 -1 61 1
62 21 0 21 0 21 16 -2 l16 -23 13 28 12 28 1 -27 c1 -32 21 -39 21 -8 0 14 7
20 21 20 34 0 21 44 -14 48 -23 3 -30 -2 -42 -30 l-14 -33 -11 31 c-9 25 -17
32 -38 32 -15 0 -32 -4 -39 -10 -7 -6 -14 -5 -18 2 -10 16 -30 12 -50 -10z
m53 -23 c4 -20 -25 -34 -40 -19 -15 15 -1 44 19 40 10 -2 19 -11 21 -21z m60
-5 c3 -16 -2 -22 -16 -22 -22 0 -32 17 -24 38 7 20 37 9 40 -16z"/>
<path d="M2125 1486 c-17 -40 -20 -70 -4 -43 12 21 35 22 43 1 3 -8 10 -13 15
-9 6 3 8 12 4 20 -3 8 0 15 6 15 7 0 14 -7 17 -15 4 -10 19 -15 48 -14 30 1
35 3 18 7 -24 7 -28 29 -5 24 7 -2 13 2 13 8 0 5 -10 10 -22 10 -25 0 -14 16
17 23 11 2 -8 4 -42 5 -56 0 -62 -2 -65 -21 -2 -12 -11 -23 -22 -25 -11 -3
-16 0 -11 7 3 6 11 9 16 6 5 -4 9 1 9 9 0 31 -21 26 -35 -8z"/>
<path d="M312 1443 c-6 -10 -8 -29 -5 -43 4 -21 11 -25 42 -28 36 -2 38 -1 33
23 -2 14 -9 25 -16 25 -6 0 -2 7 8 15 14 11 16 15 5 15 -8 0 -24 3 -36 6 -15
4 -24 0 -31 -13z"/>
<path d="M2603 1438 c-57 -9 -63 -12 -63 -34 0 -13 -4 -24 -10 -24 -5 0 -10
11 -10 25 0 14 -5 25 -11 25 -7 0 -9 -10 -5 -27 l6 -28 -21 28 c-31 40 -49 35
-49 -13 0 -29 4 -40 15 -40 10 0 15 10 15 28 l1 27 20 -27 c17 -24 28 -28 67
-28 50 0 66 6 75 30 4 12 6 11 6 -2 1 -10 8 -18 16 -18 9 0 12 6 9 15 -4 8 -1
15 5 15 6 0 11 -4 11 -10 0 -5 12 -10 28 -10 24 1 25 2 9 11 -14 8 -16 14 -6
25 8 10 8 14 0 14 -18 0 -13 18 7 23 31 8 -52 5 -115 -5z m7 -62 c0 -8 -11
-13 -30 -12 -40 1 -40 26 0 26 19 0 30 -5 30 -14z"/>
<path d="M400 1399 c0 -21 5 -39 10 -39 6 0 8 11 4 25 -3 14 -2 25 3 25 5 0
16 -11 23 -25 13 -25 22 -28 103 -30 35 -1 37 1 37 32 0 23 5 33 15 33 11 0
15 -11 15 -37 0 -24 3 -33 9 -25 6 10 10 10 21 -3 15 -18 34 -19 60 -3 15 10
22 10 32 0 23 -23 38 -13 38 23 0 19 5 35 10 35 6 0 10 -16 10 -35 0 -33 2
-35 33 -34 27 1 29 2 9 7 -25 7 -30 29 -6 24 8 -2 14 2 14 8 0 5 -7 10 -15 10
-8 0 -15 5 -15 10 0 6 9 10 21 10 11 0 18 4 15 9 -8 12 -116 13 -116 1 0 -6 7
-10 15 -10 9 0 15 -9 15 -25 0 -37 -17 -31 -30 11 -8 24 -15 33 -22 26 -7 -7
-17 -7 -29 1 -15 9 -24 9 -38 0 -11 -7 -21 -8 -23 -4 -2 5 -38 12 -80 16 -68
6 -78 5 -78 -9 0 -9 -4 -16 -10 -16 -5 0 -10 6 -10 13 0 7 -9 13 -20 14 -17 2
-20 -4 -20 -38z m290 0 c0 -5 -8 -9 -17 -9 -15 0 -16 -2 -3 -10 18 -11 7 -25
-15 -17 -18 8 -20 44 -2 50 16 5 37 -3 37 -14z m-145 -18 c3 -5 2 -12 -2 -14
-12 -8 -63 4 -63 14 0 12 57 12 65 0z"/>
<path d="M2338 1425 c-2 -3 -25 -5 -51 -6 -30 -2 -47 -7 -47 -15 0 -7 6 -14
13 -17 7 -2 8 -8 3 -13 -5 -5 -10 -4 -13 2 -2 7 -13 9 -24 7 -15 -4 -17 -8 -8
-14 10 -6 9 -10 -5 -15 -23 -9 -38 14 -25 37 6 11 16 15 30 12 15 -4 20 -3 15
5 -9 15 -39 15 -54 0 -16 -16 -15 -53 3 -68 15 -12 55 -5 55 11 0 5 9 9 20 9
11 0 20 -4 20 -10 0 -5 5 -10 11 -10 7 0 8 7 4 18 -17 40 -17 52 -2 52 11 0
17 -12 20 -37 l4 -38 1 38 c2 47 22 49 22 2 0 -32 2 -35 31 -35 17 0 28 4 24
10 -3 5 -12 7 -19 4 -8 -3 -17 -1 -21 5 -3 6 4 15 17 20 l23 10 -22 0 c-32 1
-29 21 3 21 14 0 23 4 19 10 -6 10 -38 14 -47 5z"/>
<path d="M967 1414 c-10 -11 -8 -74 2 -74 11 0 21 62 12 73 -4 4 -10 4 -14 1z"/>
<path d="M1020 1394 c0 -22 -2 -25 -15 -14 -18 15 -19 1 -1 -22 18 -24 26 -23
26 5 1 20 2 19 17 -8 l16 -30 18 40 18 40 0 -37 c1 -34 4 -38 26 -38 14 0 25
5 25 10 0 6 -9 10 -20 10 -27 0 -25 18 3 23 l22 4 -22 2 c-28 1 -31 21 -3 21
11 0 20 5 20 10 0 6 -14 10 -30 10 -25 0 -34 -6 -45 -32 l-14 -33 -11 33 c-14
39 -30 42 -30 6z"/>
<path d="M1170 1405 c-11 -13 -1 -29 23 -38 25 -10 12 -26 -16 -20 -17 4 -19
3 -11 -6 16 -18 58 -10 62 11 2 12 -6 21 -22 28 -35 13 -33 18 9 18 33 0 35
-2 35 -34 0 -19 5 -34 10 -34 6 0 10 16 10 35 0 25 4 35 16 35 8 0 12 4 9 10
-8 13 -113 9 -125 -5z"/>
<path d="M1377 1402 c-33 -37 -14 -72 39 -72 18 0 34 6 37 13 3 9 9 9 27 -1
29 -18 31 -14 13 31 -18 44 -30 47 -44 10 -8 -22 -12 -24 -19 -13 -7 12 -12
12 -22 2 -9 -9 -9 -12 2 -12 11 0 11 -3 2 -12 -16 -16 -35 3 -30 28 3 13 11
18 26 17 25 -3 30 12 6 21 -21 8 -19 9 -37 -12z"/>
<path d="M1603 1412 c-19 -3 -23 -10 -23 -43 0 -38 1 -39 33 -38 23 1 26 3 10
6 -26 5 -31 23 -8 23 8 0 15 5 15 10 0 6 -7 10 -15 10 -24 0 -17 18 8 22 12 2
18 5 12 9 -5 3 -20 3 -32 1z"/>
<path d="M1787 1414 c-11 -11 -8 -84 3 -84 6 0 10 12 10 28 l1 27 17 -27 c9
-16 20 -28 24 -28 5 0 8 12 9 28 l1 27 11 -27 c14 -36 24 -35 41 5 l14 32 1
-32 1 -33 62 3 c51 2 63 5 66 19 2 12 -6 21 -22 28 -35 13 -33 18 9 18 33 0
35 -2 35 -35 0 -20 4 -32 10 -28 6 3 10 19 10 36 0 16 5 29 10 29 6 0 10 5 10
10 0 6 -24 9 -57 8 -50 -3 -58 -6 -61 -24 -2 -15 3 -23 17 -27 36 -9 23 -22
-24 -24 -32 -1 -45 2 -45 12 0 7 8 16 18 18 16 4 16 5 0 6 -26 2 -22 21 4 21
15 0 19 3 12 10 -19 19 -70 0 -81 -28 -9 -25 -11 -26 -18 -7 -4 11 -13 26 -19
34 -9 11 -12 7 -16 -20 l-5 -34 -21 33 c-11 18 -23 29 -27 26z"/>
<path d="M2130 1376 c0 -25 5 -46 10 -46 6 0 10 18 10 39 0 22 -4 43 -10 46
-6 4 -10 -12 -10 -39z"/>
<path d="M1320 1370 c0 -22 5 -40 10 -40 6 0 10 18 10 40 0 22 -4 40 -10 40
-5 0 -10 -18 -10 -40z"/>
<path d="M1513 1403 c12 -3 17 -15 17 -39 0 -19 5 -34 10 -34 6 0 10 15 10 34
0 19 6 37 13 39 6 3 -6 5 -28 5 -22 0 -32 -2 -22 -5z"/>
<path d="M1740 1370 c0 -22 5 -40 10 -40 6 0 10 18 10 40 0 22 -4 40 -10 40
-5 0 -10 -18 -10 -40z"/>
<path d="M310 1321 c0 -46 4 -49 73 -55 35 -2 50 0 54 10 7 20 20 17 26 -5 3
-15 13 -19 41 -18 20 1 36 5 36 9 0 4 7 8 15 8 8 0 15 -4 15 -10 0 -5 7 -10
15 -10 11 0 12 5 5 24 -6 17 -5 26 3 29 31 12 -17 26 -118 36 -60 6 -122 14
-137 17 -27 6 -28 5 -28 -35z m104 -7 c9 -8 16 -18 16 -20 0 -9 -35 1 -42 11
-20 27 1 34 26 9z"/>
<path d="M2653 1343 c-18 -3 -23 -12 -24 -36 -2 -30 -2 -31 -6 -4 -4 22 -9 27
-33 27 -16 0 -31 -6 -33 -12 -4 -10 -8 -10 -15 1 -8 11 -31 12 -108 7 -55 -3
-116 -6 -136 -6 -35 0 -38 -2 -38 -27 l-1 -28 -20 28 c-28 36 -39 34 -39 -8 0
-24 -5 -35 -15 -35 -10 0 -15 10 -15 29 0 17 -4 33 -10 36 -6 4 -10 -10 -10
-34 0 -30 5 -41 19 -46 29 -9 51 5 51 34 l1 26 17 -27 c15 -26 22 -28 79 -28
49 0 63 3 63 15 0 8 4 15 9 15 5 0 11 -7 15 -15 6 -17 51 -20 61 -5 4 6 11 7
17 4 6 -4 14 -1 18 6 6 9 12 9 29 0 46 -24 243 19 202 45 -5 3 -7 14 -4 25 4
17 1 20 -23 19 -16 -1 -39 -4 -51 -6z m-348 -64 c0 -15 -7 -25 -17 -27 -13 -3
-18 3 -18 21 0 13 3 27 7 31 13 12 28 -1 28 -25z m175 15 c0 -11 -5 -14 -16
-10 -9 3 -20 6 -25 6 -5 0 -9 5 -9 10 0 6 11 10 25 10 16 0 25 -6 25 -16z"/>
<path d="M620 1309 c0 -12 -4 -18 -11 -13 -7 4 -9 2 -5 -7 3 -8 9 -22 12 -31
12 -33 74 -10 74 27 0 20 -28 45 -51 45 -13 0 -19 -7 -19 -21z m48 -22 c-5
-34 -28 -33 -28 2 0 23 4 29 16 24 8 -3 14 -15 12 -26z"/>
<path d="M719 1326 c-3 -3 -3 -23 0 -44 6 -33 10 -37 39 -40 29 -3 32 -1 32
25 l1 28 17 -28 c13 -22 24 -27 47 -26 17 2 40 -1 53 -5 30 -10 62 1 62 22 0
15 3 14 18 -3 22 -27 85 -28 90 -3 2 12 -6 21 -22 28 -36 13 -32 20 9 18 33
-1 35 -3 35 -35 0 -18 5 -33 10 -33 6 0 10 16 10 35 0 19 5 35 10 35 6 0 10 5
10 10 0 12 -100 10 -117 -2 -6 -5 -14 -5 -18 1 -3 6 -42 10 -90 10 -76 -2 -85
-4 -85 -20 0 -25 -12 -24 -28 1 -18 29 -32 25 -32 -9 0 -29 -15 -49 -27 -37
-3 3 -9 22 -12 42 -3 20 -9 33 -12 30z m156 -46 c0 -16 -6 -26 -17 -28 -14 -3
-18 3 -18 28 0 25 4 31 18 28 11 -2 17 -12 17 -28z m75 0 c0 -23 -4 -30 -20
-30 -11 0 -20 5 -20 10 0 6 8 10 18 10 16 1 16 1 0 11 -24 13 -23 29 2 29 16
0 20 -7 20 -30z m110 -22 c0 -12 -18 -19 -25 -9 -3 6 -12 8 -20 4 -16 -6 -18
-2 -9 20 4 12 10 12 30 3 13 -6 24 -14 24 -18z"/>
<path d="M1288 1312 c-12 -2 -18 -13 -18 -30 l-1 -27 -20 28 c-11 15 -25 27
-30 27 -5 0 -9 -12 -10 -27 l-1 -28 -10 28 c-5 15 -14 27 -19 27 -13 0 -42
-70 -33 -79 4 -3 9 0 11 7 5 14 43 16 43 2 0 -5 7 -10 15 -10 10 0 15 10 15
28 l1 27 17 -27 c30 -50 108 -32 100 23 -3 23 -32 38 -60 31z m37 -43 c0 -15
-7 -25 -17 -27 -13 -3 -18 3 -18 21 0 13 3 27 7 31 13 12 28 -1 28 -25z"/>
<path d="M2033 1313 c-7 -2 -13 -17 -13 -31 l-1 -27 -17 28 c-9 15 -20 27 -24
27 -5 0 -8 -12 -8 -27 l-1 -28 -15 28 c-19 35 -27 34 -42 -6 -16 -45 -15 -49
8 -35 15 10 22 10 32 0 19 -19 28 -14 28 16 l1 27 20 -27 c34 -46 99 -34 99
19 0 31 -35 50 -67 36z m45 -37 c4 -19 -16 -39 -30 -30 -4 3 -8 16 -8 30 0 19
5 25 17 22 10 -2 19 -12 21 -22z"/>
<path d="M1422 1273 c3 -36 5 -38 41 -39 33 -1 37 2 37 24 0 21 2 22 15 12 18
-15 19 -1 1 23 -23 30 -46 21 -46 -18 0 -24 -5 -35 -15 -35 -10 0 -15 11 -15
35 0 19 -5 35 -11 35 -6 0 -9 -16 -7 -37z"/>
<path d="M1537 1278 c-6 -43 -2 -48 37 -48 44 0 63 22 48 55 -9 20 -19 25 -46
25 -30 0 -34 -3 -39 -32z m61 13 c19 -11 11 -45 -11 -49 -13 -3 -17 3 -17 27
0 32 6 37 28 22z"/>
<path d="M1640 1270 c0 -37 2 -40 28 -39 23 2 24 2 5 6 -26 5 -31 23 -8 23 8
0 15 5 15 10 0 6 -7 10 -15 10 -23 0 -18 18 8 23 19 4 18 4 -5 6 -26 1 -28 -2
-28 -39z"/>
<path d="M1700 1270 c0 -38 20 -60 20 -22 1 16 1 16 14 0 19 -25 22 -23 23 22
2 38 0 40 -28 40 -27 0 -29 -2 -29 -40z"/>
<path d="M1777 1303 c-13 -12 -7 -23 18 -35 33 -15 32 -32 -2 -23 -23 5 -25 4
-14 -9 17 -20 26 -20 46 0 12 12 13 19 4 30 -6 8 -18 14 -25 14 -31 0 -11 16
21 17 33 1 35 -1 35 -33 0 -19 5 -34 10 -34 6 0 10 15 10 34 0 19 6 37 13 39
6 3 -15 6 -49 6 -33 1 -64 -2 -67 -6z"/>
<path d="M316 1252 c-4 -3 -6 -22 -6 -43 0 -35 2 -37 35 -41 34 -4 35 -3 35
29 0 42 17 44 18 2 0 -17 3 -33 6 -36 2 -3 50 -7 105 -9 l101 -4 0 34 c0 19 6
37 13 39 6 3 -21 6 -60 6 l-73 1 0 -36 c0 -23 -4 -33 -11 -28 -6 3 -9 22 -7
40 4 34 4 34 -37 34 -22 0 -57 4 -77 9 -20 5 -39 6 -42 3z m258 -38 c21 -8 21
-40 0 -48 -21 -8 -34 1 -34 23 0 28 9 34 34 25z"/>
<path d="M2635 1239 c-22 -4 -64 -8 -92 -8 l-53 -1 0 -36 c0 -24 -4 -34 -12
-31 -7 2 -13 17 -13 33 0 17 -5 29 -12 28 -7 -1 -42 -2 -78 -2 l-65 -2 1 -42
c1 -24 3 -35 6 -26 2 9 12 16 23 15 10 -1 16 -7 13 -14 -4 -9 5 -13 30 -13 26
0 36 5 40 20 7 27 27 26 27 -1 0 -19 4 -21 38 -15 20 3 52 6 70 6 30 0 32 2
32 35 0 44 20 47 21 3 0 -28 2 -30 9 -13 7 17 9 17 9 3 1 -24 82 -25 102 -2
11 13 9 14 -13 9 -15 -4 -29 -2 -32 4 -4 7 1 11 14 11 12 0 19 4 15 10 -3 5
-12 7 -20 3 -8 -3 -15 0 -15 6 0 11 12 15 44 11 11 -1 15 3 12 9 -8 12 -42 13
-101 0z m-60 -29 c10 -16 -5 -50 -21 -50 -17 0 -28 24 -20 45 6 17 32 20 41 5z"/>
<path d="M660 1220 c0 -5 7 -10 16 -10 10 0 14 -6 10 -15 -3 -8 -1 -25 4 -37
8 -20 9 -18 9 15 1 26 5 37 16 37 8 0 15 5 15 10 0 6 -16 10 -35 10 -19 0 -35
-4 -35 -10z"/>
<path d="M771 1177 c1 -23 3 -34 6 -24 5 21 19 22 30 3 14 -25 93 -25 93 -1 0
9 9 15 23 16 19 0 20 1 4 8 -26 10 -26 24 1 26 19 1 22 -3 22 -37 0 -34 3 -38
25 -38 14 0 25 5 25 10 0 6 -8 10 -18 10 -13 0 -17 8 -17 33 l0 32 -97 2 -98
2 1 -42z m119 3 c0 -25 -4 -30 -25 -30 -14 0 -25 5 -25 10 0 6 7 10 15 10 8 0
15 5 15 10 0 6 -3 9 -7 9 -17 -3 -24 2 -18 11 3 6 15 10 26 10 14 0 19 -7 19
-30z"/>
<path d="M1017 1213 c-4 -3 -7 -24 -7 -45 0 -36 2 -38 31 -38 17 0 28 4 24 10
-3 6 -13 10 -21 10 -20 0 -18 18 4 23 16 4 16 5 0 6 -25 1 -23 21 2 21 14 0
20 -7 20 -23 0 -39 48 -65 65 -36 10 16 -3 23 -18 11 -17 -15 -27 -6 -27 24 0
19 5 22 35 21 33 -1 35 -3 35 -34 0 -18 5 -33 10 -33 6 0 10 16 10 35 0 26 4
35 17 35 9 0 13 3 10 6 -9 10 -99 11 -119 2 -9 -5 -20 -4 -23 2 -7 11 -38 13
-48 3z"/>
<path d="M2090 1175 c0 -41 2 -45 25 -45 14 0 25 5 25 11 0 6 -7 9 -15 6 -8
-4 -17 -2 -20 4 -13 21 27 21 42 0 16 -24 53 -25 61 -3 3 9 -3 11 -22 6 -23
-5 -26 -3 -26 19 0 22 4 25 34 24 32 -1 34 -3 29 -28 -3 -15 0 -30 6 -33 7 -5
11 5 11 28 0 25 4 36 15 36 8 0 15 5 15 10 0 6 -25 10 -55 10 -44 0 -57 -4
-67 -20 -13 -21 -48 -28 -48 -10 0 6 9 10 20 10 11 0 20 5 20 10 0 6 -11 10
-25 10 -23 0 -25 -4 -25 -45z"/>
<path d="M1270 1170 c0 -22 5 -40 10 -40 6 0 10 7 10 15 0 8 4 15 9 15 5 0 11
-7 15 -15 3 -8 11 -15 17 -15 8 0 8 4 -1 15 -10 12 -10 18 0 30 17 20 4 35
-31 35 -27 0 -29 -2 -29 -40z"/>
<path d="M1350 1170 c0 -37 2 -40 28 -39 23 2 24 2 5 6 -13 2 -23 8 -23 13 0
4 10 11 23 15 l22 8 -22 4 c-13 2 -23 8 -23 13 0 5 10 11 23 13 19 4 18 4 -5
6 -26 1 -28 -2 -28 -39z"/>
<path d="M1421 1168 c1 -24 3 -35 6 -26 2 9 14 19 26 21 l22 4 -22 8 c-13 4
-23 11 -23 15 0 5 10 11 23 13 19 4 18 4 -5 6 -27 1 -28 -1 -27 -41z"/>
<path d="M1492 1173 c-2 -46 4 -54 32 -43 19 6 19 7 -1 12 -15 4 -23 15 -26
39 -3 31 -4 31 -5 -8z"/>
<path d="M1562 1168 c2 -36 7 -44 26 -46 12 -2 22 1 22 7 0 6 -9 11 -20 11
-11 0 -20 5 -20 10 0 6 7 10 15 10 8 0 15 5 15 10 0 6 -7 10 -15 10 -23 0 -18
18 8 23 18 4 18 4 -6 6 -27 1 -28 -1 -25 -41z"/>
<path d="M1631 1197 c-31 -31 11 -94 45 -66 8 6 14 16 14 21 0 6 -6 5 -15 -2
-18 -15 -35 -5 -35 20 0 25 17 35 35 20 12 -10 15 -10 15 0 0 6 6 10 13 7 6
-2 12 -17 12 -33 0 -16 5 -29 10 -29 6 0 9 11 7 25 -2 14 4 29 14 37 15 11 8
12 -43 12 -34 -1 -66 -6 -72 -12z"/>
<path d="M1831 1168 c1 -24 3 -35 6 -25 5 21 22 22 29 2 11 -26 19 -16 19 23
0 33 -3 37 -27 40 -27 3 -28 2 -27 -40z"/>
<path d="M1900 1170 c0 -37 2 -40 28 -39 26 0 27 0 4 10 -13 5 -20 13 -17 19
4 6 10 8 15 5 5 -3 11 -1 15 5 3 5 -3 10 -15 10 -12 0 -18 5 -15 10 3 6 15 10
26 10 15 0 19 -7 19 -35 0 -19 5 -35 10 -35 6 0 10 7 10 15 0 8 7 15 15 15 8
0 15 5 15 10 0 6 -7 10 -15 10 -23 0 -18 18 8 23 12 2 -6 5 -40 6 l-63 1 0
-40z"/>
<path d="M2030 1171 c0 -38 2 -41 28 -40 26 0 26 1 4 9 -18 8 -21 15 -16 34 3
13 1 27 -5 30 -7 5 -11 -7 -11 -33z"/>
<path d="M371 1136 c-7 -8 -11 -23 -9 -33 4 -23 48 -45 64 -32 8 6 13 6 16 0
1 -5 24 -11 51 -14 l47 -4 0 34 c0 18 5 33 10 33 6 0 10 4 10 9 0 4 -30 8 -67
9 -38 1 -77 4 -89 7 -12 4 -25 1 -33 -9z m149 -42 c0 -17 -6 -24 -19 -24 -25
0 -31 10 -20 37 11 29 39 20 39 -13z"/>
<path d="M2626 1143 c-3 -4 -39 -9 -79 -12 -60 -5 -72 -9 -71 -23 2 -25 -17
-23 -23 2 -7 27 -23 26 -23 -2 0 -20 -1 -20 -19 -4 -14 12 -32 16 -67 14 -49
-3 -49 -3 -49 -38 l0 -35 51 -3 c44 -3 52 0 62 20 l11 23 7 -22 c3 -13 10 -23
15 -23 5 0 9 10 9 23 1 20 2 21 14 5 9 -13 27 -18 60 -18 l46 0 1 38 1 37 9
-33 c9 -31 12 -32 52 -29 47 4 47 4 47 54 0 35 -1 36 -15 17 -13 -17 -14 -17
-15 -1 0 17 -11 22 -24 10z m-71 -53 c0 -34 -31 -39 -37 -6 -6 29 0 38 22 34
9 -2 15 -14 15 -28z m-218 -10 c0 -31 -21 -41 -31 -15 -7 20 3 45 18 45 7 0
13 -13 13 -30z m51 3 c-3 -30 -25 -42 -34 -19 -9 22 2 46 21 46 12 0 15 -8 13
-27z"/>
<path d="M578 1105 c-16 -35 9 -60 61 -62 33 -2 41 2 47 20 l7 21 17 -22 c24
-29 30 -28 30 6 l1 27 16 -27 c14 -22 25 -27 67 -30 28 -2 57 -2 64 0 21 7 13
22 -10 19 -15 -1 -23 4 -26 17 -5 25 14 44 29 29 6 -6 18 -9 25 -6 10 4 14 -4
14 -32 0 -21 4 -34 10 -30 6 3 10 19 10 36 0 16 5 29 10 29 6 0 10 4 10 10 0
6 -37 9 -89 9 -90 -1 -90 -1 -93 -27 l-3 -27 -20 33 c-24 39 -35 41 -35 5 l-1
-28 -20 28 c-17 22 -28 27 -65 27 -38 0 -46 -4 -56 -25z m42 -15 c0 -31 -16
-41 -26 -15 -8 19 2 45 16 45 5 0 10 -13 10 -30z m50 -5 c0 -25 -23 -35 -35
-15 -10 16 2 40 20 40 9 0 15 -9 15 -25z m164 -20 c3 -10 -1 -15 -14 -15 -20
0 -33 13 -23 24 11 11 31 6 37 -9z"/>
<path d="M1035 1107 c-19 -10 -19 -51 0 -67 17 -14 47 -10 53 8 3 9 -3 11 -22
6 -23 -5 -26 -3 -26 19 0 22 4 25 35 24 33 -1 35 -3 35 -34 0 -18 5 -33 10
-33 6 0 10 16 10 35 0 26 4 35 17 35 9 0 13 3 9 7 -10 10 -103 10 -121 0z"/>
<path d="M1237 1102 c-41 -46 -14 -71 76 -69 64 1 67 2 67 25 0 21 2 22 15 12
19 -16 19 -1 -1 25 -12 16 -16 17 -23 6 -6 -9 -11 -10 -15 -2 -4 6 -21 10 -39
9 -18 -1 -39 2 -48 6 -9 4 -22 0 -32 -12z m37 -8 c21 -8 21 -40 0 -48 -21 -8
-34 1 -34 23 0 28 9 34 34 25z m76 -10 c11 -12 11 -18 -2 -31 -19 -18 -38 -10
-38 16 0 33 20 40 40 15z"/>
<path d="M2069 1113 c-16 -4 -32 -59 -22 -75 2 -5 21 -7 41 -7 23 1 29 3 15 6
-13 2 -23 11 -23 19 0 21 33 17 48 -7 14 -22 52 -23 60 -1 3 9 -3 11 -22 6
-23 -5 -26 -3 -26 19 0 22 4 25 35 24 31 -1 34 -4 38 -36 l4 -36 1 38 c1 25 7
37 17 37 8 0 15 4 15 10 0 5 -25 9 -56 8 -42 -1 -59 -6 -67 -20 -12 -19 -47
-25 -47 -8 0 6 9 10 20 10 11 0 20 5 20 10 0 10 -21 11 -51 3z"/>
<path d="M1419 1085 c-1 -14 -2 -31 -3 -37 -1 -7 7 -14 17 -16 13 -3 17 3 17
25 l1 28 22 -27 c30 -37 37 -35 37 12 0 23 -5 40 -11 40 -7 0 -9 -10 -5 -25 4
-14 3 -25 -2 -25 -5 0 -14 11 -20 25 -7 15 -20 25 -32 25 -14 0 -20 -7 -21
-25z"/>
<path d="M1522 1068 c2 -36 7 -44 26 -46 12 -2 22 1 22 7 0 6 -9 11 -20 11
-11 0 -20 5 -20 10 0 6 9 10 20 10 27 0 25 18 -2 23 -23 4 -23 4 2 15 l25 11
-28 0 c-27 1 -28 -1 -25 -41z"/>
<path d="M1591 1096 c-27 -32 7 -84 44 -70 23 9 18 24 -7 21 -15 -1 -23 4 -26
17 -6 28 14 42 34 25 15 -12 17 -12 12 1 -6 21 -42 24 -57 6z"/>
<path d="M1668 1103 c6 -2 12 -20 12 -39 0 -19 5 -34 10 -34 6 0 10 16 10 36
0 19 4 33 9 29 5 -3 12 -1 16 5 4 6 -8 10 -32 9 -21 0 -32 -3 -25 -6z"/>
<path d="M1799 1089 c-14 -28 14 -74 39 -63 9 4 39 7 65 6 46 0 48 1 43 24 -8
31 7 31 24 -1 7 -14 19 -25 27 -25 7 0 13 11 13 25 0 14 5 25 10 25 6 0 10 -5
10 -12 0 -6 3 -9 6 -6 9 10 -16 48 -31 48 -10 0 -15 -10 -15 -27 l0 -28 -23
26 c-19 23 -30 26 -89 27 -58 1 -70 -2 -79 -19z m45 5 c21 -8 21 -40 0 -48
-21 -8 -34 1 -34 23 0 28 9 34 34 25z m71 -24 c0 -13 -6 -25 -12 -27 -16 -6
-27 21 -19 43 9 23 31 11 31 -16z"/>
<path d="M360 1015 c0 -38 3 -44 26 -49 14 -4 31 -2 38 3 7 6 17 7 22 2 5 -5
24 -11 42 -14 25 -5 32 -3 32 9 0 14 2 14 16 0 18 -19 55 -21 72 -4 9 9 16 8
30 -5 27 -24 32 -21 32 18 0 19 5 35 10 35 6 0 10 -16 10 -35 0 -31 3 -35 25
-35 14 0 25 4 25 9 0 5 -7 8 -16 7 -26 -2 -28 22 -2 27 l23 4 -22 2 c-28 1
-31 21 -3 21 11 0 20 5 20 10 0 6 -28 10 -64 10 l-64 0 -12 -36 c-14 -42 -36
-40 -32 4 3 30 1 32 -27 32 -26 0 -31 -4 -31 -25 0 -29 -26 -44 -43 -25 -10
10 -8 12 8 8 16 -4 20 0 20 24 0 25 -3 28 -35 28 -19 0 -50 4 -68 9 l-32 10 0
-44z m70 -16 c-12 -21 -12 -21 -34 -13 -23 9 -20 23 7 33 29 11 39 4 27 -20z"/>
<path d="M2571 1036 c-91 -12 -116 -29 -95 -63 12 -20 56 -29 82 -17 10 4 43
6 75 5 37 -2 57 1 57 8 0 13 -28 82 -32 80 -2 -1 -41 -7 -87 -13z m-61 -46 c0
-16 -4 -30 -10 -30 -11 0 -14 43 -3 53 11 12 13 8 13 -23z"/>
<path d="M2377 1023 c-44 -4 -50 -7 -63 -39 -19 -45 -44 -45 -44 -1 0 31 -3
33 -35 35 -32 2 -37 -1 -49 -29 l-13 -32 -14 29 c-10 20 -21 29 -37 28 -126
-4 -122 -3 -122 -26 l-1 -23 -17 21 c-14 17 -29 21 -82 21 -36 1 -71 -4 -77
-9 -30 -24 2 -86 35 -70 9 5 36 7 60 6 39 -2 42 0 42 25 l1 26 22 -27 c30 -37
37 -35 37 7 0 19 5 35 10 35 6 0 10 -16 10 -35 0 -19 5 -35 10 -35 6 0 10 16
10 35 0 19 5 35 10 35 6 0 10 -16 10 -35 0 -32 2 -35 30 -35 26 0 30 4 31 28
l1 27 11 -27 c13 -34 21 -35 35 -5 l11 22 1 -25 c1 -25 1 -25 10 -2 10 24 50
31 50 8 0 -21 32 -25 53 -7 15 12 22 13 38 2 19 -11 20 -10 14 11 -4 13 -10
29 -12 36 -3 6 2 12 11 12 12 0 16 -10 17 -37 l2 -38 7 40 7 40 2 -37 c1 -35
3 -38 32 -38 17 0 28 4 24 10 -3 5 -12 7 -20 3 -9 -3 -15 1 -15 10 0 9 8 18
18 20 16 4 16 5 0 6 -25 1 -22 21 3 21 11 0 17 5 14 10 -3 6 -12 9 -18 8 -7
-1 -34 -3 -60 -5z m-507 -39 c11 -12 11 -18 -2 -31 -19 -18 -38 -10 -38 16 0
33 20 40 40 15z m65 -15 c0 -28 -29 -38 -39 -13 -7 19 11 47 28 41 6 -2 11
-14 11 -28z"/>
<path d="M791 1002 c-16 -30 4 -62 41 -63 18 -1 45 -2 61 -3 22 -2 27 2 27 21
0 30 13 29 30 -2 16 -30 30 -23 30 16 0 16 5 29 10 29 6 0 10 -16 10 -36 0
-20 4 -33 10 -29 5 3 7 19 3 35 -4 23 -2 30 11 30 12 0 16 -9 16 -35 0 -33 2
-35 35 -35 29 0 35 4 36 23 l0 22 11 -22 c14 -30 22 -29 35 5 l11 27 1 -27 c1
-28 21 -41 21 -14 0 8 10 16 23 18 14 2 22 10 22 23 0 16 -8 21 -37 23 -33 3
-38 0 -44 -22 -8 -33 -17 -33 -30 2 -10 27 -13 28 -84 27 -70 0 -74 -1 -80
-24 l-6 -24 -16 24 c-14 22 -24 25 -77 27 -48 1 -62 -2 -70 -16z m49 -22 c0
-19 -5 -30 -14 -30 -19 0 -26 21 -14 43 14 27 28 20 28 -13z m64 -13 c-10 -27
-44 -21 -44 7 0 13 6 26 13 29 18 7 39 -17 31 -36z m196 3 c0 -23 -4 -30 -20
-30 -25 0 -27 30 -2 31 16 1 16 2 0 6 -24 6 -23 23 2 23 16 0 20 -7 20 -30z"/>
<path d="M1250 970 c0 -40 0 -40 39 -40 22 0 41 5 44 13 3 10 9 10 26 0 30
-19 31 -17 14 27 -9 22 -20 40 -24 40 -5 0 -15 -16 -23 -35 -10 -24 -22 -35
-35 -35 -17 0 -21 6 -21 35 0 19 -4 35 -10 35 -5 0 -10 -18 -10 -40z"/>
<path d="M1393 1003 c12 -3 17 -15 17 -39 0 -19 5 -34 10 -34 6 0 10 15 10 34
0 19 6 37 13 39 6 3 -6 5 -28 5 -22 0 -32 -2 -22 -5z"/>
<path d="M1462 968 c3 -39 6 -43 31 -46 15 -2 27 1 27 7 0 6 -9 11 -20 11 -11
0 -20 5 -20 10 0 6 7 10 15 10 8 0 15 5 15 10 0 6 -7 10 -15 10 -8 0 -15 5
-15 11 0 6 9 8 20 4 11 -4 20 -2 20 4 0 6 -14 11 -31 11 -29 0 -30 -1 -27 -42z"/>
<path d="M1613 996 c10 -8 17 -27 17 -47 1 -28 2 -31 11 -16 6 9 7 26 4 36 -4
13 0 23 12 30 15 8 11 10 -22 10 -35 0 -38 -1 -22 -13z"/>
<path d="M1680 965 c0 -43 1 -45 30 -45 17 0 30 5 30 10 0 6 -11 10 -25 10
-14 0 -25 5 -25 10 0 6 9 10 20 10 11 0 20 5 20 10 0 6 -9 10 -21 10 -11 0
-18 4 -14 10 3 5 12 7 19 4 8 -3 17 -1 21 5 4 7 -5 11 -24 11 -30 0 -31 -1
-31 -45z"/>
<path d="M402 938 c-16 -16 -16 -53 1 -64 6 -5 26 -9 42 -9 26 0 30 3 27 25
l-3 25 13 -24 c17 -31 64 -48 90 -32 11 7 18 7 18 1 0 -5 13 -10 29 -10 22 0
32 6 37 22 6 21 7 20 19 -8 9 -21 14 -25 19 -14 20 53 24 70 17 75 -5 2 -12
-7 -16 -23 l-7 -27 -11 25 c-10 22 -20 25 -67 28 -30 2 -63 6 -73 9 -13 3 -20
-2 -24 -16 -6 -24 -23 -29 -23 -7 0 18 -6 22 -45 30 -19 4 -35 2 -43 -6z m144
-43 c-1 -14 -6 -28 -9 -31 -9 -10 -20 23 -13 41 9 24 25 17 22 -10z m74 3 c0
-9 4 -8 11 2 9 12 10 12 5 -3 -3 -10 -6 -23 -6 -28 0 -14 -28 -11 -33 4 -5 16
3 37 14 37 5 0 9 -6 9 -12z"/>
<path d="M2550 933 c-107 -7 -130 -13 -130 -34 0 -10 -4 -19 -10 -19 -5 0 -10
9 -10 20 0 11 -4 20 -10 20 -5 0 -10 -5 -10 -11 0 -8 -4 -8 -12 -1 -18 14
-148 15 -164 1 -30 -25 -11 -70 31 -74 20 -3 29 2 32 16 6 23 19 25 27 3 4
-11 17 -14 43 -12 31 2 39 7 41 26 4 26 22 20 22 -9 0 -28 17 -23 25 8 l6 27
13 -25 c8 -15 19 -23 32 -21 10 1 31 3 46 3 15 0 30 4 33 8 2 5 25 6 49 4 38
-5 45 -3 51 16 11 36 -3 61 -33 59 -15 -1 -47 -3 -72 -5z m-70 -43 c0 -31 -16
-41 -26 -15 -5 13 11 45 22 45 2 0 4 -13 4 -30z m83 10 c3 -13 0 -20 -9 -20
-8 0 -14 -5 -14 -11 0 -5 -4 -7 -10 -4 -5 3 -10 11 -10 16 0 6 5 7 12 3 8 -5
9 0 6 14 -4 14 -2 22 7 22 7 0 15 -9 18 -20z m-213 -26 c0 -26 -9 -31 -28 -12
-8 8 -8 17 -1 30 13 24 29 14 29 -18z m-95 16 c3 -5 -2 -10 -12 -11 -10 0 -13
-3 -5 -6 17 -7 15 -23 -2 -23 -19 0 -29 17 -22 35 6 17 32 20 41 5z"/>
<path d="M746 915 c-17 -17 -20 -34 -10 -59 8 -22 74 -22 74 -1 0 20 10 19 25
-1 7 -10 29 -17 54 -19 38 -2 44 1 53 24 7 18 12 22 15 11 13 -44 15 -45 29
-15 7 17 13 38 14 48 0 26 -20 10 -21 -16 -1 -20 -2 -19 -12 6 -13 32 -27 36
-27 7 0 -25 -16 -26 -23 -1 -4 15 -14 18 -60 19 -31 0 -65 3 -75 7 -12 3 -26
-1 -36 -10z m40 -16 c3 -6 0 -15 -7 -20 -12 -7 -12 -9 0 -9 11 0 12 -3 4 -11
-14 -14 -33 -3 -33 20 0 29 22 42 36 20z m121 -33 c-8 -20 -36 -21 -43 -1 -4
8 0 22 7 31 11 13 14 13 27 0 8 -8 12 -22 9 -30z"/>
<path d="M1066 907 c-12 -9 -17 -23 -14 -42 3 -27 7 -30 46 -33 33 -2 42 0 42
12 0 20 16 21 24 1 3 -8 11 -15 17 -15 8 0 8 4 -1 15 -9 11 -10 19 -3 26 7 7
12 2 17 -15 5 -21 13 -26 36 -26 17 0 30 5 30 13 0 8 3 7 10 -3 5 -8 12 -11
17 -7 4 4 2 17 -5 27 -7 11 -12 27 -12 35 0 17 -55 21 -65 5 -5 -8 -11 -7 -21
1 -8 6 -26 9 -41 6 -15 -3 -35 -1 -44 4 -10 5 -23 4 -33 -4z m42 -13 c12 -4
22 -11 22 -16 0 -6 -9 -8 -20 -5 -11 3 -20 1 -20 -4 0 -5 5 -9 12 -9 9 0 9 -3
1 -11 -16 -16 -33 -2 -33 27 0 26 3 27 38 18z m137 -24 c0 -13 -6 -25 -12 -27
-16 -6 -27 21 -19 43 9 23 31 11 31 -16z"/>
<path d="M2072 893 c-9 -27 -9 -28 -16 -5 -9 27 -26 29 -26 2 0 -11 -4 -20
-10 -20 -5 0 -10 9 -10 20 0 15 -7 20 -28 20 -15 0 -33 -5 -39 -11 -8 -8 -13
-8 -17 0 -4 6 -18 11 -32 11 -17 0 -24 -5 -24 -20 0 -14 -7 -20 -22 -20 -18 0
-20 -2 -8 -10 18 -11 6 -25 -15 -16 -10 3 -15 15 -13 28 2 17 9 22 26 21 13
-2 21 1 17 7 -9 15 -41 12 -55 -5 -7 -8 -10 -25 -6 -40 6 -22 12 -25 51 -25
36 0 45 3 45 18 1 16 1 16 14 0 18 -24 29 -23 21 2 -3 11 -2 20 3 20 5 0 12
-9 15 -20 7 -28 87 -27 87 1 0 26 18 33 22 9 2 -12 7 -22 11 -23 12 -3 37 72
27 78 -5 3 -12 -7 -18 -22z m-78 -8 c8 -21 -3 -45 -20 -45 -8 0 -17 7 -20 15
-8 21 2 45 20 45 7 0 16 -7 20 -15z"/>
<path d="M1296 903 c-9 -10 -7 -45 3 -39 5 3 11 -3 14 -14 7 -27 24 -25 31 4
3 13 9 31 12 40 9 25 -12 19 -24 -6 -8 -18 -11 -19 -11 -6 -1 19 -15 31 -25
21z"/>
<path d="M1427 903 c-13 -13 -7 -62 9 -71 24 -13 54 -3 54 19 0 13 -7 19 -22
18 -13 0 -17 -3 -10 -6 16 -6 15 -23 -2 -23 -19 0 -29 29 -16 45 6 7 20 10 32
7 14 -3 19 -1 14 6 -8 13 -48 16 -59 5z"/>
<path d="M1501 868 c1 -24 3 -35 6 -25 6 23 18 22 35 -5 13 -20 14 -19 14 23
-1 40 -3 44 -28 47 -27 3 -28 2 -27 -40z"/>
<path d="M1580 896 c-15 -20 -9 -56 12 -70 13 -8 22 -6 36 8 15 13 21 14 25 4
2 -7 8 -9 13 -5 4 4 3 17 -4 27 -7 11 -12 27 -12 35 0 20 -53 20 -70 1z m48
-24 c4 -26 -26 -42 -38 -21 -11 16 7 52 23 46 7 -2 13 -13 15 -25z"/>
<path d="M1677 904 c-11 -11 -9 -46 3 -39 6 3 10 -3 10 -14 0 -36 25 -23 37
19 8 30 7 40 -1 37 -6 -2 -13 -14 -15 -28 -3 -24 -3 -24 -15 4 -6 16 -14 25
-19 21z"/>
<path d="M420 831 c0 -37 29 -72 59 -69 14 2 29 7 33 12 3 5 14 2 23 -7 11
-11 31 -17 58 -16 23 1 34 3 25 6 -19 5 -25 23 -8 23 17 0 11 18 -7 23 -15 3
-14 6 7 15 23 10 21 11 -22 11 -26 1 -50 -4 -53 -10 -5 -6 -11 -4 -19 6 -6 9
-31 19 -54 22 -38 5 -42 4 -42 -16z"/>
<path d="M2592 835 c2 -10 -3 -20 -11 -23 -10 -3 -12 0 -8 12 7 17 -17 24 -27
7 -3 -4 -16 -6 -30 -4 -32 6 -52 -27 -35 -58 9 -17 17 -20 41 -15 17 3 46 6
64 6 34 0 34 0 30 42 -2 23 -9 44 -15 46 -7 2 -11 -3 -9 -13z m-70 -33 c-12
-2 -20 -8 -16 -13 3 -5 10 -7 15 -4 5 4 9 1 9 -4 0 -6 -9 -11 -20 -11 -13 0
-20 7 -20 19 0 20 26 32 45 22 6 -3 0 -7 -13 -9z"/>
<path d="M665 810 c-17 -18 -17 -21 -1 -45 20 -30 52 -33 61 -5 3 11 13 20 21
20 8 0 14 -9 14 -20 0 -11 5 -20 10 -20 6 0 10 5 10 10 0 6 9 10 20 10 11 0
20 -4 20 -10 0 -5 5 -10 10 -10 6 0 10 12 10 28 l0 27 23 -28 c20 -26 30 -29
90 -33 40 -2 67 0 67 6 0 6 -9 10 -20 10 -27 0 -25 18 3 23 l22 4 -22 2 c-28
1 -31 21 -3 21 11 0 20 5 20 10 0 13 -47 13 -55 0 -4 -7 -11 -8 -18 -1 -7 5
-24 9 -39 8 -23 -2 -28 -7 -28 -27 l0 -25 -25 30 -24 30 -1 -25 c-1 -24 -1
-24 -12 -5 -16 30 -18 31 -28 15 -7 -10 -10 -11 -10 -2 0 6 -4 12 -10 12 -5 0
-10 -7 -10 -15 0 -22 -27 -18 -33 5 -7 26 -39 26 -62 0z m45 -25 c0 -25 -23
-35 -35 -15 -10 16 2 40 20 40 9 0 15 -9 15 -25z m238 -3 c-10 -2 -15 -9 -11
-18 3 -9 -1 -14 -11 -14 -22 0 -31 27 -16 45 10 12 16 12 34 3 18 -10 19 -13
4 -16z"/>
<path d="M2370 809 c-10 -17 -14 -18 -27 -8 -19 16 -53 22 -53 10 0 -6 5 -13
10 -16 6 -3 10 -10 10 -16 0 -5 -4 -9 -10 -9 -5 0 -10 7 -10 16 0 8 -4 13 -9
9 -5 -3 -12 3 -14 12 -4 14 -5 13 -6 -4 -1 -29 -31 -31 -38 -3 -7 28 -58 27
-74 -1 -18 -35 3 -70 41 -67 21 2 30 7 30 20 0 11 7 18 20 18 11 0 20 -7 20
-15 0 -8 5 -15 10 -15 6 0 10 5 10 10 0 6 7 10 15 10 8 0 15 -4 15 -10 0 -5 5
-10 10 -10 6 0 10 12 10 28 l1 27 20 -27 c17 -23 28 -28 65 -28 24 0 44 5 44
10 0 6 -7 10 -15 10 -21 0 -19 18 3 23 15 4 15 5 -1 6 -19 1 -19 26 1 26 5 0
14 3 18 8 4 4 -14 7 -39 7 -37 0 -49 -4 -57 -21z m37 -24 c-3 -33 -21 -33 -25
0 -2 17 1 25 12 25 10 0 14 -9 13 -25z m-199 -8 c4 -20 -25 -34 -40 -19 -15
15 -1 44 19 40 10 -2 19 -11 21 -21z"/>
<path d="M2043 812 c-15 -2 -23 -10 -23 -23 0 -13 -7 -19 -22 -19 -17 0 -19
-3 -9 -9 10 -6 10 -10 1 -16 -16 -10 -33 9 -28 31 2 12 12 19 26 18 12 0 22 3
22 8 0 12 -48 10 -56 -3 -4 -8 -9 -7 -15 2 -6 10 -9 5 -9 -16 l-1 -30 -20 28
c-27 36 -39 34 -40 -5 l-1 -33 -14 33 c-8 17 -17 32 -22 32 -4 0 -14 -17 -24
-38 l-16 -37 -1 38 c-1 20 -6 37 -12 37 -6 0 -9 -7 -5 -15 4 -10 -1 -15 -14
-15 -11 0 -20 7 -20 15 0 8 -4 15 -10 15 -5 0 -10 -18 -10 -40 0 -22 5 -40 10
-40 6 0 10 7 10 15 0 8 9 15 20 15 11 0 20 -7 20 -15 0 -18 13 -19 41 -2 17
10 23 10 26 0 3 -7 13 -13 24 -13 14 0 19 7 19 28 l1 27 17 -27 c19 -32 32
-36 32 -10 1 16 1 16 10 0 8 -12 25 -16 70 -17 34 0 58 4 55 9 -3 5 -12 7 -20
3 -9 -3 -15 1 -15 10 0 9 8 18 18 20 16 4 16 5 0 6 -26 2 -22 19 5 23 12 2 18
5 12 9 -5 3 -20 3 -32 1z"/>
<path d="M1104 796 c-3 -8 -4 -25 -2 -38 3 -20 9 -23 46 -24 30 -1 42 2 42 12
0 8 9 14 20 14 11 0 20 -7 20 -15 0 -18 36 -20 43 -2 3 10 9 10 26 0 34 -21
49 -16 44 15 l-4 27 23 -27 c32 -37 38 -35 38 12 0 41 -20 58 -21 18 l0 -23
-16 23 c-22 32 -33 27 -34 -15 l-1 -38 -16 37 c-10 21 -20 38 -24 38 -4 0 -14
-16 -22 -35 -8 -19 -18 -35 -22 -35 -4 0 -4 16 -1 35 3 19 2 35 -4 35 -5 0 -9
-7 -9 -15 0 -8 -9 -15 -20 -15 -11 0 -20 6 -20 13 0 19 -79 22 -86 3z m56 -6
c12 -7 12 -13 4 -27 -17 -27 -39 -22 -42 10 -3 28 10 35 38 17z"/>
<path d="M1417 803 c-12 -11 -8 -60 6 -71 19 -16 57 -3 57 19 0 13 -7 19 -22
19 -18 0 -20 -2 -8 -10 18 -11 6 -25 -15 -16 -26 10 -15 52 13 49 12 -2 22 2
22 7 0 11 -43 14 -53 3z"/>
<path d="M1492 768 c3 -39 6 -43 31 -46 15 -2 27 1 27 7 0 6 -9 11 -20 11 -11
0 -20 5 -20 10 0 6 7 10 15 10 8 0 15 5 15 10 0 6 -7 10 -15 10 -8 0 -15 5
-15 11 0 6 9 8 20 4 11 -4 20 -2 20 4 0 6 -14 11 -31 11 -29 0 -30 -1 -27 -42z"/>
<path d="M1652 798 c-30 -30 -2 -86 38 -73 27 9 26 25 -2 22 -15 -1 -23 4 -26
17 -5 24 18 38 37 23 11 -10 13 -9 9 3 -6 19 -40 24 -56 8z"/>
<path d="M456 732 c4 -9 9 -29 11 -44 4 -22 11 -27 49 -33 24 -3 48 -4 52 -1
5 3 7 -16 4 -43 l-4 -49 35 -4 c20 -2 44 -1 54 3 16 7 17 8 1 8 -19 1 -26 21
-8 21 6 0 10 4 10 10 0 5 -7 7 -15 4 -9 -4 -15 0 -15 10 0 10 9 16 23 17 18 1
16 3 -8 9 l-30 8 30 2 c24 2 26 3 10 8 -14 5 -20 16 -20 37 0 25 -4 30 -28 33
-21 3 -29 -2 -36 -20 -8 -20 -10 -21 -16 -6 -4 9 -4 22 0 28 3 6 -3 10 -14 10
-12 0 -24 0 -28 0 -5 0 -8 -5 -8 -12 0 -6 -6 -13 -14 -16 -10 -3 -12 0 -8 11
4 10 -1 17 -14 20 -16 4 -19 2 -13 -11z m164 -48 c0 -14 -6 -24 -14 -24 -22 0
-28 17 -16 40 14 26 30 17 30 -16z"/>
<path d="M2520 729 c0 -5 5 -7 10 -4 6 3 10 1 10 -5 0 -8 -7 -9 -17 -5 -45 19
-71 17 -84 -6 l-12 -23 -8 23 c-6 16 -15 21 -31 19 -20 -3 -23 -9 -23 -43 0
-33 4 -40 25 -46 18 -5 11 -7 -26 -8 -44 -1 -53 -4 -57 -22 -4 -13 -12 -19
-23 -17 -18 3 -22 23 -5 23 5 0 13 3 17 7 4 5 -26 5 -67 2 -41 -3 -78 -9 -82
-13 -5 -5 -7 -21 -5 -37 2 -25 8 -29 36 -32 24 -2 32 1 32 12 0 20 14 20 30 1
17 -20 50 -19 65 2 11 15 16 16 38 4 15 -8 41 -11 68 -8 24 3 48 6 53 6 5 1 3
8 -5 17 -10 13 -10 17 1 24 23 14 3 38 -39 45 -25 4 -41 12 -41 21 0 19 36 18
44 -1 4 -12 21 -15 76 -14 38 1 70 5 70 10 0 5 -7 9 -15 9 -8 0 -15 5 -15 10
0 6 5 10 11 10 6 0 9 6 6 14 -3 7 0 19 6 25 8 8 4 11 -16 11 -15 0 -27 -5 -27
-11z m-34 -27 c6 -4 13 -16 17 -27 6 -18 5 -18 -5 -3 -11 15 -13 15 -24 0 -16
-21 -28 -10 -19 17 7 22 13 25 31 13z m-41 -81 c3 -5 1 -12 -4 -16 -6 -3 -8
-12 -4 -20 3 -8 0 -15 -6 -15 -6 0 -11 14 -11 30 0 29 13 40 25 21z m-250 -21
c8 -13 -4 -50 -16 -50 -13 0 -22 27 -15 45 6 17 22 20 31 5z"/>
<path d="M650 725 c0 -13 35 -75 43 -75 5 0 7 3 5 8 -3 4 -10 22 -17 40 -7 17
-17 32 -22 32 -5 0 -9 -2 -9 -5z"/>
<path d="M707 703 c-9 -21 -9 -27 1 -31 6 -2 12 -10 12 -18 0 -9 10 -14 28
-13 23 2 24 2 5 6 -13 2 -23 11 -23 18 0 7 10 16 23 18 l22 4 -22 2 c-28 1
-31 21 -3 21 11 0 20 5 20 10 0 6 -11 10 -25 10 -18 0 -29 -8 -38 -27z"/>
<path d="M830 680 c0 -39 1 -40 33 -39 23 1 26 3 10 6 -26 5 -31 23 -8 23 8 0
15 5 15 10 0 6 -7 10 -15 10 -8 0 -15 5 -15 10 0 6 9 10 21 10 13 0 25 -11 35
-35 16 -39 33 -45 41 -14 5 20 6 20 17 -3 15 -29 42 -34 67 -12 17 16 19 16
19 1 0 -11 8 -17 25 -17 14 0 25 5 25 10 0 6 -9 10 -20 10 -16 0 -20 7 -20 36
0 20 -4 33 -10 29 -5 -3 -6 -13 -3 -23 4 -13 2 -13 -10 3 -23 30 -84 28 -92
-2 -7 -30 -21 -29 -29 2 -5 21 -12 25 -46 25 -40 0 -40 0 -40 -40z m190 -5 c0
-18 -5 -25 -20 -25 -15 0 -20 7 -20 25 0 18 5 25 20 25 15 0 20 -7 20 -25z"/>
<path d="M2085 710 c-3 -5 -12 -7 -20 -3 -10 3 -15 -1 -15 -15 0 -31 -19 -36
-26 -7 -5 21 -24 37 -24 20 0 -11 29 -75 34 -75 3 0 12 12 19 26 l14 27 7 -27
c7 -28 42 -36 64 -14 9 9 12 9 12 0 0 -7 11 -12 25 -12 14 0 25 5 25 10 0 6
-9 10 -20 10 -16 0 -20 7 -20 36 0 30 -2 34 -14 25 -10 -8 -16 -9 -21 -1 -8
13 -32 13 -40 0z m43 -33 c4 -20 -25 -34 -40 -19 -15 15 -1 44 19 40 10 -2 19
-11 21 -21z"/>
<path d="M2200 713 c0 -16 25 -73 32 -73 4 0 11 7 16 16 8 15 10 15 15 0 4
-10 17 -15 34 -15 24 2 25 2 6 6 -26 5 -31 23 -8 23 8 0 15 5 15 10 0 6 -7 10
-15 10 -23 0 -18 18 8 23 16 3 12 5 -11 6 -29 1 -35 -3 -44 -30 l-11 -31 -13
31 c-12 28 -24 41 -24 24z"/>
<path d="M1125 673 c24 -58 26 -58 50 0 8 20 11 37 6 37 -5 0 -14 -12 -19 -27
l-10 -28 -11 28 c-6 15 -15 27 -21 27 -6 0 -4 -15 5 -37z"/>
<path d="M1200 670 c0 -39 1 -40 33 -39 23 1 26 3 10 6 -26 5 -31 23 -8 23 8
0 15 5 15 10 0 6 -7 10 -15 10 -23 0 -18 18 8 23 16 3 13 5 -10 6 -32 1 -33 0
-33 -39z"/>
<path d="M1360 670 c0 -43 16 -58 48 -44 15 7 14 8 -5 11 -26 5 -32 23 -8 23
8 0 15 5 15 10 0 6 -7 10 -15 10 -23 0 -18 18 8 23 16 3 13 5 -10 6 -32 1 -33
0 -33 -39z"/>
<path d="M1440 701 c0 -21 31 -81 40 -76 12 7 34 75 26 82 -3 3 -11 -7 -17
-23 l-12 -29 -10 28 c-10 25 -27 37 -27 18z"/>
<path d="M1530 695 c-26 -31 8 -83 45 -69 37 15 25 84 -15 84 -10 0 -23 -7
-30 -15z m45 -25 c0 -13 -6 -25 -12 -27 -16 -6 -27 21 -19 43 9 23 31 11 31
-16z"/>
<path d="M1610 670 c0 -43 16 -58 48 -44 15 7 14 8 -5 11 -19 4 -23 11 -23 39
0 19 -4 34 -10 34 -5 0 -10 -18 -10 -40z"/>
<path d="M1690 703 c0 -20 26 -73 35 -73 9 0 35 53 35 73 0 19 -19 4 -25 -20
l-8 -28 -10 28 c-10 24 -27 38 -27 20z"/>
<path d="M1780 670 c0 -39 1 -40 33 -39 30 2 30 2 5 6 -32 5 -38 23 -8 23 11
0 20 5 20 10 0 6 -10 10 -22 10 -25 0 -14 15 17 23 13 3 9 5 -12 6 -32 1 -33
0 -33 -39z"/>
<path d="M1930 670 c0 -39 1 -40 33 -39 23 1 26 3 10 6 -26 5 -31 23 -8 23 8
0 15 5 15 10 0 6 -7 10 -15 10 -23 0 -18 18 8 23 16 3 13 5 -10 6 -32 1 -33 0
-33 -39z"/>
<path d="M680 609 c-9 -16 -8 -26 5 -45 15 -24 15 -24 -15 -24 -27 0 -29 -2
-21 -18 6 -10 7 -28 4 -40 -6 -23 -4 -24 109 -26 37 -1 38 0 38 34 0 33 -2 35
-37 38 -38 2 -73 22 -40 22 9 0 17 8 17 17 0 14 3 13 23 -5 26 -24 57 -28 75
-10 10 10 17 10 32 0 23 -14 24 -10 8 35 -15 41 -26 42 -41 3 -7 -18 -19 -30
-29 -30 -23 0 -23 17 0 23 16 4 16 5 0 6 -10 0 -18 8 -18 17 0 10 6 14 15 11
8 -4 17 -2 20 3 4 6 -22 10 -64 10 -61 0 -72 -3 -81 -21z m40 -19 c0 -31 -16
-41 -26 -15 -8 19 2 45 16 45 5 0 10 -13 10 -30z m48 -98 c3 -17 -2 -22 -17
-22 -16 0 -21 6 -21 26 0 33 33 30 38 -4z"/>
<path d="M892 608 c9 -7 19 -26 21 -43 4 -27 4 -26 6 8 2 50 31 53 31 3 0 -28
4 -34 25 -38 14 -3 28 -1 31 3 3 5 -4 9 -15 9 -12 0 -21 5 -21 10 0 6 7 10 15
10 8 0 15 5 15 10 0 6 -7 10 -15 10 -23 0 -18 18 8 23 12 2 -9 5 -47 6 -58 1
-67 -1 -54 -11z"/>
<path d="M1092 608 c-28 -28 -4 -84 34 -76 26 5 28 25 2 24 -17 -1 -23 5 -23
19 0 14 6 20 23 19 12 0 21 4 19 10 -5 16 -40 19 -55 4z"/>
<path d="M1167 613 c-11 -10 -8 -83 3 -83 6 0 10 7 10 15 0 8 4 15 9 15 5 0
11 -7 15 -15 3 -8 11 -15 17 -15 8 0 8 4 0 14 -9 11 -10 20 -2 35 9 16 8 22
-8 31 -23 12 -35 13 -44 3z"/>
<path d="M1247 613 c-4 -3 -7 -24 -7 -45 0 -37 1 -38 33 -37 23 1 26 3 10 6
-13 2 -23 11 -23 18 0 7 10 16 23 18 l22 4 -22 2 c-28 1 -31 21 -3 21 11 0 20
5 20 10 0 11 -43 14 -53 3z"/>
<path d="M1332 580 c-12 -24 -18 -47 -15 -50 3 -3 8 1 10 8 3 6 13 12 23 12
10 0 20 -6 23 -12 2 -7 7 -10 11 -6 4 3 -1 26 -12 50 l-20 43 -20 -45z"/>
<path d="M1405 610 c-3 -5 -1 -10 4 -10 6 0 11 -16 11 -35 0 -19 5 -35 10 -35
6 0 10 16 10 35 0 25 4 35 16 35 8 0 12 5 9 10 -3 6 -17 10 -30 10 -13 0 -27
-4 -30 -10z"/>
<path d="M1492 608 c-7 -7 -12 -27 -12 -45 0 -31 2 -33 33 -32 23 1 26 3 10 6
-13 2 -23 8 -23 13 0 4 10 11 23 15 l22 8 -22 4 c-28 5 -30 23 -3 23 11 0 20
5 20 10 0 14 -33 13 -48 -2z"/>
<path d="M1658 609 c-22 -12 -23 -52 -3 -69 18 -15 47 -10 53 10 5 13 3 13
-12 1 -20 -17 -40 -3 -34 25 3 13 11 18 27 16 20 -2 22 0 11 13 -15 17 -19 18
-42 4z"/>
<path d="M1733 613 c-15 -6 -18 -83 -3 -83 6 0 10 7 10 15 0 20 10 19 27 -2
14 -17 14 -17 9 1 -4 10 -1 25 6 33 10 12 9 18 -7 29 -20 15 -23 15 -42 7z"/>
<path d="M1814 608 c-7 -11 -9 -33 -5 -68 1 -5 13 -9 29 -9 23 2 24 2 5 6 -13
2 -23 11 -23 20 0 9 6 13 15 10 8 -4 17 -2 20 3 4 6 -3 10 -14 10 -12 0 -21 5
-21 10 0 6 9 10 20 10 11 0 20 5 20 10 0 14 -37 12 -46 -2z"/>
<path d="M1887 578 c-9 -23 -14 -44 -11 -47 4 -3 9 0 11 7 3 6 13 12 23 12 10
0 20 -6 23 -12 2 -7 7 -10 11 -7 7 7 -24 89 -34 89 -4 0 -14 -19 -23 -42z"/>
<path d="M1950 610 c0 -5 5 -10 10 -10 6 0 10 -16 10 -35 0 -19 5 -35 10 -35
6 0 10 16 10 35 0 19 5 35 10 35 6 0 10 5 10 10 0 6 -13 10 -30 10 -16 0 -30
-4 -30 -10z"/>
<path d="M2024 606 c-3 -8 -4 -27 -2 -43 2 -22 9 -29 31 -31 15 -2 27 1 27 7
0 6 -9 11 -20 11 -25 0 -26 17 -2 23 16 4 16 5 0 6 -25 1 -23 21 2 21 11 0 20
5 20 10 0 15 -50 12 -56 -4z"/>
<path d="M2308 533 c-11 -3 -18 -14 -18 -29 0 -21 4 -24 20 -19 14 4 20 2 20
-9 0 -25 -57 1 -64 29 -6 23 -10 24 -74 20 -37 -2 -70 -4 -74 -4 -17 -2 -7
-33 12 -38 11 -3 20 -12 20 -20 0 -10 -6 -12 -21 -8 -14 5 -19 3 -15 -4 4 -6
25 -9 49 -7 23 2 47 4 54 5 6 1 9 10 6 21 -3 11 -2 28 2 37 6 17 7 17 21 -1
20 -28 18 -41 -11 -56 -18 -10 -25 -22 -26 -44 l-1 -31 -11 28 c-10 25 -15 27
-61 27 -40 -1 -47 -3 -33 -11 10 -6 17 -22 17 -39 0 -29 2 -30 46 -30 37 0 47
4 51 20 3 11 9 20 14 20 5 0 9 -9 9 -20 0 -11 6 -20 13 -20 7 0 13 17 14 45 1
27 -3 45 -9 45 -6 0 -9 3 -6 6 4 3 31 7 60 8 67 3 78 10 78 46 0 36 -28 47
-82 33z m-108 -53 c0 -22 -4 -28 -15 -24 -15 6 -20 35 -8 47 14 15 23 6 23
-23z m-10 -105 c0 -8 -9 -15 -20 -15 -20 0 -26 11 -13 23 12 13 33 7 33 -8z"/>
<path d="M817 523 c-13 -13 -7 -32 13 -38 11 -3 20 -11 20 -17 0 -6 -9 -8 -20
-5 -11 3 -20 1 -20 -4 0 -5 15 -9 33 -10 17 0 54 -2 80 -4 42 -4 49 -1 56 18
l8 22 7 -23 c10 -31 22 -28 37 11 l13 32 3 -32 c4 -29 8 -33 31 -32 24 2 24 2
5 6 -28 5 -30 23 -3 23 11 0 20 5 20 10 0 6 -10 10 -22 10 -25 0 -14 15 17 23
11 3 1 5 -22 6 -38 1 -43 -2 -49 -24 -6 -26 -24 -35 -24 -12 -1 30 -19 38 -97
42 -44 3 -83 2 -86 -2z m93 -38 c0 -18 -5 -25 -20 -25 -15 0 -20 7 -20 25 0
18 5 25 20 25 15 0 20 -7 20 -25z m58 -1 c2 -12 -4 -24 -12 -27 -19 -7 -40 18
-32 39 8 22 40 13 44 -12z"/>
<path d="M1121 478 c1 -24 3 -35 6 -25 6 22 11 22 32 -4 17 -21 17 -21 17 22
-1 40 -3 44 -28 47 -27 3 -28 2 -27 -40z"/>
<path d="M1277 513 c-4 -3 -7 -24 -7 -45 0 -33 3 -38 23 -38 29 0 47 18 47 47
0 29 -45 55 -63 36z m43 -38 c0 -16 -6 -25 -15 -25 -9 0 -15 9 -15 25 0 16 6
25 15 25 9 0 15 -9 15 -25z"/>
<path d="M1380 476 c0 -25 5 -46 10 -46 6 0 10 18 10 39 0 22 -4 43 -10 46 -6
4 -10 -12 -10 -39z"/>
<path d="M1453 513 c-21 -8 -14 -32 13 -46 18 -9 23 -16 15 -21 -7 -4 -18 -3
-26 4 -9 7 -15 8 -20 1 -7 -12 39 -26 54 -16 18 11 12 37 -9 42 -11 3 -20 10
-20 15 0 6 9 8 20 5 24 -6 27 8 4 17 -9 3 -16 6 -17 5 -1 0 -8 -3 -14 -6z"/>
<path d="M1531 506 c-7 -8 -11 -27 -9 -43 2 -22 8 -28 27 -28 13 0 27 7 29 15
4 12 3 13 -10 2 -12 -10 -18 -9 -28 3 -14 17 -7 45 12 45 20 0 32 -12 46 -43
10 -23 18 -28 40 -25 22 2 28 8 30 35 4 41 -29 64 -57 39 -16 -15 -19 -15 -31
-1 -16 19 -34 19 -49 1z m125 -21 c4 -8 0 -22 -7 -31 -11 -13 -14 -13 -27 0
-17 17 -9 46 13 46 9 0 18 -7 21 -15z"/>
<path d="M1680 510 c0 -16 28 -80 35 -80 6 0 35 63 35 75 0 17 -19 0 -25 -22
l-8 -28 -13 33 c-14 32 -24 41 -24 22z"/>
<path d="M1775 514 c-6 -2 -9 -22 -7 -44 4 -34 7 -40 28 -40 13 0 24 5 24 10
0 6 -9 10 -20 10 -27 0 -25 18 3 23 l22 4 -22 2 c-28 1 -31 21 -3 21 11 0 20
5 20 10 0 10 -26 12 -45 4z"/>
<path d="M1847 514 c-4 -4 -6 -26 -6 -48 1 -23 3 -33 6 -23 5 21 22 22 29 2
11 -28 21 -15 20 28 -1 34 -5 43 -21 45 -12 2 -24 0 -28 -4z"/>
<path d="M1980 480 c0 -38 2 -40 30 -40 23 0 31 5 36 25 8 31 -10 55 -42 55
-21 0 -24 -5 -24 -40z m48 -3 c-5 -34 -28 -33 -28 2 0 23 4 29 16 24 8 -3 14
-15 12 -26z"/>
<path d="M2070 480 c0 -22 5 -40 10 -40 6 0 10 18 10 40 0 22 -4 40 -10 40 -5
0 -10 -18 -10 -40z"/>
<path d="M765 411 c3 -18 5 -37 5 -41 0 -4 9 -10 20 -13 15 -4 20 0 21 16 1
17 2 18 6 5 2 -10 8 -18 13 -18 5 0 15 -3 24 -6 13 -5 16 1 16 30 0 20 5 36
10 36 6 0 10 -16 10 -35 0 -19 5 -35 11 -35 7 0 9 12 7 30 -3 17 -1 33 3 35 4
3 9 -13 11 -35 3 -36 1 -40 -18 -40 -12 0 -25 -7 -28 -16 -10 -25 2 -30 19 -8
13 17 14 17 15 2 0 -26 17 -22 24 6 3 14 14 27 24 29 13 4 11 5 -5 6 -28 1
-31 21 -3 21 11 0 20 5 20 10 0 6 -9 10 -20 10 -11 0 -20 5 -20 11 0 6 9 9 20
6 11 -3 23 -1 26 4 3 5 -19 9 -48 9 -29 0 -69 3 -89 6 -34 6 -37 4 -44 -22
l-7 -29 -14 30 -14 30 5 -34z"/>
<path d="M1010 418 c0 -9 5 -29 10 -44 9 -21 7 -29 -7 -40 -10 -7 -19 -8 -21
-3 -8 20 -29 7 -45 -26 -9 -19 -13 -35 -8 -35 4 0 13 10 19 23 l11 22 0 -22
c1 -27 17 -38 25 -17 3 8 10 13 14 10 5 -3 19 6 32 21 12 14 18 28 12 32 -6 4
-6 15 1 31 l10 25 5 -24 c2 -13 12 -26 23 -28 24 -7 25 -23 2 -23 -19 0 -58
-58 -47 -69 4 -3 9 0 11 7 10 26 25 11 19 -18 -4 -22 -1 -32 10 -37 19 -7 32
6 16 16 -10 6 -10 14 1 39 7 18 17 29 21 25 5 -5 5 3 1 16 -5 16 -4 21 4 17 6
-4 11 -3 11 2 0 6 -7 12 -15 16 -8 3 -15 12 -15 21 0 19 16 20 24 0 3 -8 11
-15 17 -15 8 0 8 4 -1 15 -10 12 -10 18 0 30 17 20 4 35 -31 35 -25 0 -29 -4
-30 -27 l-1 -28 -11 28 c-13 33 -22 34 -32 5 -7 -22 -7 -22 -12 -3 -7 27 -23
43 -23 23z"/>
<path d="M1997 424 c-4 -4 -7 -16 -7 -26 0 -10 -4 -18 -10 -18 -5 0 -10 9 -10
20 0 27 -14 25 -28 -2 -8 -18 -11 -19 -11 -6 -1 9 -6 20 -13 24 -11 7 -8 -30
8 -69 5 -15 3 -17 -18 -12 -27 7 -58 -15 -58 -40 0 -8 -5 -25 -12 -39 -9 -20
-14 -23 -25 -15 -7 6 -13 19 -13 28 -1 11 -5 8 -15 -9 l-14 -25 -1 24 c0 13
-8 30 -17 37 -17 12 -16 13 5 14 25 0 30 15 7 24 -21 8 -19 56 3 72 15 12 13
13 -20 14 -21 0 -38 -4 -38 -10 0 -5 6 -10 14 -10 19 0 13 -106 -7 -128 -8
-10 -17 -37 -18 -62 -4 -46 -4 -46 26 -41 16 2 35 11 42 20 10 14 11 12 6 -8
-5 -21 -4 -22 15 -12 11 6 31 12 44 12 17 1 18 3 6 6 -10 2 -18 9 -18 13 0 11
62 1 70 -11 7 -11 22 1 38 29 10 18 10 22 -3 22 -8 0 -15 4 -15 10 0 5 13 7
30 3 25 -5 29 -3 24 11 -4 10 -1 16 9 16 22 0 26 -21 9 -47 -8 -13 -10 -23 -4
-23 6 0 17 -3 26 -6 9 -3 16 -1 16 4 0 6 -8 12 -17 15 -16 4 -16 5 1 12 13 6
21 5 24 -3 5 -15 61 -4 85 16 20 18 23 48 5 55 -8 3 -5 6 6 6 15 1 16 4 6 16
-7 8 -21 15 -31 15 -14 0 -19 10 -22 48 l-3 47 -2 -51 c-2 -49 -3 -51 -27 -46
-18 3 -25 0 -25 -12 0 -19 11 -21 28 -4 9 9 12 9 12 -1 0 -7 -6 -19 -14 -27
-16 -15 -41 -19 -32 -5 8 13 -4 42 -15 36 -4 -3 -5 -13 -2 -22 4 -11 2 -14 -8
-11 -8 3 -13 13 -12 22 1 16 0 16 -17 -1 -10 -10 -17 -22 -16 -27 0 -6 -7 -12
-16 -14 -10 -2 -18 1 -18 7 0 6 4 11 9 11 5 0 12 10 16 23 4 12 8 25 10 30 1
4 3 16 4 28 1 25 21 15 21 -12 0 -10 7 -19 15 -19 8 0 15 7 15 15 0 18 11 19
29 3 11 -11 13 -10 8 5 -4 9 -2 17 3 17 6 0 10 9 10 20 0 11 -4 20 -9 20 -5 0
-16 2 -23 5 -8 3 -17 2 -21 -1z m-89 -121 c-2 -10 -13 -19 -26 -21 -24 -4 -29
7 -10 26 18 18 40 15 36 -5z m-152 -74 c7 -12 -13 -29 -36 -29 -13 0 -13 1 0
10 8 5 11 10 7 10 -11 0 2 20 13 20 5 0 12 -5 16 -11z"/>
<path d="M1190 379 c0 -24 4 -38 10 -34 6 3 10 22 10 41 0 19 -4 34 -10 34 -5
0 -10 -18 -10 -41z"/>
<path d="M1235 410 c4 -6 11 -8 16 -5 5 4 9 -10 9 -29 0 -20 5 -36 10 -36 6 0
10 15 10 34 0 19 6 37 13 39 6 3 -5 6 -26 6 -24 1 -36 -3 -32 -9z"/>
<path d="M1320 382 c0 -21 -7 -47 -15 -58 -20 -27 -20 -51 0 -34 12 10 15 9
15 -4 0 -10 5 -14 10 -11 6 4 8 11 5 16 -4 5 5 13 18 18 39 15 42 31 8 37 -35
7 -42 24 -11 24 28 0 25 20 -2 21 -21 1 -21 2 -3 6 36 9 41 23 7 23 -30 0 -32
-2 -32 -38z"/>
<path d="M1459 415 c-4 -3 -2 -22 4 -41 11 -37 37 -47 37 -13 0 11 5 17 10 14
6 -3 10 3 10 14 0 31 -17 34 -25 3 l-7 -27 -11 28 c-7 16 -15 26 -18 22z"/>
<path d="M1535 385 c-10 -19 -15 -40 -12 -47 2 -7 11 2 20 22 16 35 16 35 14
6 -1 -16 3 -31 10 -33 7 -3 10 4 6 19 -5 21 -4 22 11 7 14 -13 14 -20 5 -48
-10 -27 -16 -32 -36 -28 -18 3 -23 1 -19 -9 9 -22 -5 -44 -26 -44 -18 0 -20 5
-15 35 5 33 -4 47 -18 25 -7 -11 -35 -2 -35 11 0 5 7 9 16 9 14 0 14 3 4 15
-9 11 -16 13 -24 5 -5 -5 -18 -10 -27 -10 -10 0 -21 -9 -24 -21 -4 -11 -18
-24 -31 -29 -13 -5 -24 -14 -24 -20 0 -5 -8 -10 -18 -10 -10 0 -26 -14 -36
-31 -21 -35 -23 -35 -27 6 -3 20 0 29 9 28 6 -2 12 2 12 7 0 6 -11 10 -24 10
-38 0 -40 17 -4 36 23 12 28 19 18 22 -8 3 -18 9 -21 15 -18 27 -97 -66 -104
-122 -4 -28 -1 -31 23 -31 26 1 26 1 8 15 -18 14 -19 15 -2 15 11 0 16 5 13
14 -4 9 4 16 21 19 37 7 39 2 14 -33 -26 -35 -28 -44 -6 -36 10 4 25 -1 35
-10 13 -12 19 -13 19 -4 0 9 3 10 13 1 8 -6 17 -8 20 -4 4 3 7 1 7 -5 0 -7 5
-12 10 -12 15 0 12 16 -5 34 -8 8 -15 17 -15 20 0 13 24 5 40 -14 18 -20 18
-20 28 7 5 15 19 38 31 51 17 17 18 22 6 22 -8 0 -15 5 -15 10 0 6 19 10 42
10 39 0 40 -1 25 -18 -21 -23 -47 -86 -47 -114 0 -33 20 -8 25 32 5 38 27 66
44 56 16 -10 13 -38 -5 -61 -16 -19 -16 -19 -9 5 5 16 4 22 -3 15 -5 -5 -12
-22 -16 -38 -5 -23 -3 -27 14 -27 11 0 20 5 20 10 0 6 5 10 10 10 6 0 10 -7
10 -15 0 -22 17 -18 23 5 3 10 0 21 -7 24 -6 3 -2 5 9 3 11 -1 22 -12 25 -26
l6 -24 17 26 c20 31 22 44 4 28 -19 -15 -29 -3 -16 20 8 15 14 17 29 9 15 -8
18 -17 13 -45 -7 -42 -1 -43 35 -10 22 21 28 22 30 10 4 -15 24 -17 23 -2 -1
4 -1 17 -1 30 0 20 -6 23 -42 26 -23 1 -45 6 -49 12 -3 5 -17 1 -33 -12 -26
-21 -56 -20 -56 2 0 6 7 8 15 5 10 -4 19 3 27 19 10 22 13 23 32 10 23 -17 50
-20 41 -5 -3 6 3 10 14 10 12 0 21 -4 21 -10 0 -18 16 -10 38 19 26 35 39 81
23 81 -6 0 -11 -7 -11 -15 0 -8 -4 -15 -10 -15 -5 0 -10 22 -10 49 0 79 -17
68 -22 -14 -3 -42 -8 -78 -11 -81 -6 -7 -47 18 -47 28 0 5 9 8 19 8 10 0 22 7
25 16 8 21 8 24 -4 24 -5 0 -10 -7 -10 -15 0 -16 -12 -20 -23 -8 -4 3 -2 12 4
19 7 8 7 14 0 19 -7 4 -6 13 2 26 10 16 9 21 -3 29 -31 20 -59 11 -75 -25z
m165 -93 c0 -5 -9 -17 -20 -27 -20 -18 -20 -18 -18 8 2 18 8 27 20 27 10 0 18
-4 18 -8z m-330 -44 c0 -20 -16 -41 -28 -37 -6 3 -6 13 -1 27 9 23 29 30 29
10z"/>
<path d="M1790 381 c0 -32 4 -40 22 -45 13 -3 27 -1 32 4 7 7 2 10 -12 10 -12
0 -22 5 -22 10 0 6 7 10 15 10 8 0 15 5 15 10 0 6 -7 10 -15 10 -23 0 -18 18
8 23 16 3 13 5 -10 6 -32 1 -33 0 -33 -38z"/>
</g>
</svg>
